<?xml version="1.0" encoding="UTF-8"?>
<svg id="Layer_2" data-name="Layer 2" xmlns="http://www.w3.org/2000/svg" viewBox="0 0 439.28 417.16">
  <defs>
    <style>
      .cls-1 {
        stroke: #161616;
        stroke-width: 29px;
      }

      .cls-1, .cls-2 {
        stroke-linecap: round;
        stroke-linejoin: round;
      }

      .cls-1, .cls-3 {
        fill: #161616;
      }

      .cls-4 {
        fill: #fff;
      }

      .cls-2 {
        stroke: #fff;
        stroke-width: 8px;
      }

      .cls-2, .cls-5 {
        fill: #1130fe;
      }

      .cls-6 {
        fill: #ededed;
      }
    </style>
  </defs>
  <g id="Layer_2-2" data-name="Layer 2">
    <g>
      <path class="cls-1" d="M421.47,192.42c-2.6-2.52-6.13-2.89-10.81-2.21-29.77-7.16-47.25-12.91-57.34-17.54,8.02-3.53,16.44-7.81,25.05-13.04,14.01-8.51,25.35-17.58,34.26-25.78.88-.72,6.38-5.4,6.63-13.26.2-6.14-2.93-10.41-3.87-11.6L320.91,15.05c12.71,32.97,25.42,65.94,38.13,98.91-.01.58-.1,1.28-.37,2.03-.95,2.63-3.4,3.77-4.05,4.05l-63.74,10.26c-2.58-.83-5.32-1.26-8.14-1.23l-128.12,1.4c-.1,0-.19.01-.28.01.09-.17.18-.33.27-.5l-65.2-10.5c-.65-.28-3.1-1.42-4.05-4.05-.27-.75-.36-1.45-.37-2.03,12.71-32.97,25.42-65.94,38.13-98.91L28.62,108.43c-.94,1.19-4.07,5.46-3.87,11.6.25,7.86,5.75,12.54,6.63,13.26,8.9,8.2,20.25,17.28,34.26,25.79,7.72,4.69,15.29,8.61,22.57,11.92-23.7,12.43-57.02,5.29-70.09,21.42-.82.8-1.74,1.99-2.4,3.83-.48,1.06-.75,2.01-.92,2.8-1.07,5.09.93,10.07,3.45,14.07,15.63,31.75,73.39,30.06,81.98,29.62l-9.86,30.88c-3.38,10.59.41,22.15,9.39,28.68l48.61,35.36c-.98,6.56-1.91,13.98-2.62,22.18-.82,9.54-.63,11.76,0,14.09,3.92,14.54,21.51,21.42,28.18,24.04,13.88,5.43,25.47,5.08,48.07,4.14,20.8-.86,31.87-1.43,45.58-7.46,7.3-3.21,25.08-11.03,27.35-24.86.71-4.33-.53-6.6-2.49-14.92-1.56-6.64-2.57-12.91-3.22-18.76l48.97-36.66c8.8-6.59,12.45-18.03,9.1-28.5l-9.07-28.29c.11,0,.22-.01.34-.02l.02.06c4.96.3,66.86,3.38,82.88-29.84,1.51-3.14,2.71-6.79,3.32-11.05-.12-5.33-1.85-7.98-3.32-9.39Z"/>
      <g>
        <path class="cls-6" d="M289.41,130.53l65.2-10.5c.65-.28,3.1-1.42,4.05-4.05.27-.75.36-1.45.37-2.03-12.71-32.97-25.42-65.94-38.13-98.91l94.49,93.93c.94,1.19,4.07,5.46,3.87,11.6-.25,7.86-5.75,12.54-6.63,13.26-8.9,8.2-20.25,17.28-34.26,25.79-22.68,13.77-44.11,21.03-60.23,25.05-9.58-18.05-19.15-36.1-28.73-54.15Z"/>
        <path class="cls-6" d="M154.6,129.98l-65.2-10.5c-.65-.28-3.1-1.42-4.05-4.05-.27-.75-.36-1.45-.37-2.03,12.71-32.97,25.42-65.94,38.13-98.91L28.62,108.43c-.94,1.19-4.07,5.46-3.87,11.6.25,7.86,5.75,12.54,6.63,13.26,8.9,8.2,20.25,17.28,34.26,25.79,22.68,13.77,44.11,21.03,60.23,25.05,9.58-18.05,19.15-36.1,28.73-54.15Z"/>
        <path class="cls-5" d="M347.29,270.94l-39.73-123.96c-3.45-10.77-13.52-18.03-24.83-17.91l-128.12,1.4c-11.11.12-20.9,7.35-24.27,17.94l-39.97,125.22c-3.38,10.59.41,22.15,9.39,28.68l48.61,35.36c-.98,6.56-1.91,13.98-2.62,22.18-.82,9.54-.63,11.76,0,14.09,3.92,14.54,21.51,21.42,28.18,24.04,13.88,5.43,25.47,5.08,48.07,4.14,20.8-.86,31.87-1.43,45.58-7.46,7.3-3.21,25.08-11.03,27.35-24.86.71-4.33-.53-6.6-2.49-14.92-1.56-6.64-2.57-12.91-3.22-18.76l48.96-36.66c8.8-6.59,12.45-18.03,9.1-28.5Z"/>
        <path class="cls-3" d="M220,301.94l-41.4-7.85c-2.71-.51-5.48.5-7.21,2.64l-9.1,11.24c-1.38,1.7-1.94,3.93-1.54,6.09l5.92,31.6c.55,2.91,2.76,5.22,5.64,5.9l49.27,11.59c1.53.36,3.13.23,4.57-.37l42.49-17.58c2.12-.88,3.72-2.67,4.34-4.88l8.68-30.7c.69-2.45.09-5.08-1.6-6.99-4.22-3.46-8.44-6.91-12.66-10.37-.21-.31-1.46-2.11-3.87-2.49-2.82-.44-4.77,1.46-4.97,1.66-11.39,3.34-22.78,6.67-34.18,10.01l-4.41.5Z"/>
        <path class="cls-6" d="M194.65,338.29c-.08,15.52,13.02,28.03,28.18,27.35,14.88-.66,26.71-13.81,25.69-29.01,1.9-5.2,6.72-7.74,10.31-6.63,3.12.97,4.41,4.42,4.6,4.97.99,25.36-19.69,45.76-42.73,45.12-20.6-.57-38.8-17.85-40.34-40.34.46-3.01,2.48-5.48,5.16-6.26,3.46-1.01,7.52.94,9.12,4.79Z"/>
        <path class="cls-5" d="M337.17,242.7c4.64-.18,59.21-2.65,76.8-22.1,3.77-4.17,11.34-12.53,9.39-21.55-.65-3.02-2.19-5.26-3.32-6.63-48.71-11.23-68.37-19.19-75.7-24.86-1.1-.85-5.43-4.37-12.16-6.63-7.44-2.5-14.36-2.32-19.34-1.66-114.67,3.11-170.79,3.01-183.68.55-2.29-.44-12.12-2.65-23.21,1.1-6.28,2.13-10.25,5.24-12.16,6.63-23.71,17.21-61.55,7.42-75.7,24.86-2.16,2.67-2.97,4.98-3.32,6.63-1.97,9.36,6.41,18.35,9.39,21.55,22.47,24.1,76.8,22.1,76.8,22.1,52.87-1.95,132.59-1.17,236.18,0Z"/>
        <path class="cls-6" d="M14.8,201.81c.12-5.33,1.85-7.98,3.32-9.39,8.02-7.77,24.88,4.84,57.46,6.08,7.39.28,13.67-.1,19.89-1.11,9.7-1.57,17.44-4.38,22.65-6.63l-17.13,51.94c-4.96.3-66.86,3.38-82.88-29.84-1.51-3.14-2.71-6.79-3.32-11.05Z"/>
        <path class="cls-6" d="M424.78,201.81c-.12-5.33-1.85-7.98-3.32-9.39-8.02-7.77-24.88,4.84-57.46,6.08-7.39.28-13.67-.1-19.89-1.11-9.7-1.57-17.44-4.38-22.65-6.63l17.13,51.94c4.96.3,66.86,3.38,82.88-29.84,1.51-3.14,2.71-6.79,3.32-11.05Z"/>
        <g>
          <path class="cls-4" d="M139.92,200.48c-2.65,0-4.8,2.15-4.8,4.8v28.88h.05c.96,16.91,16.54,30.36,35.61,30.36s34.65-13.45,35.61-30.36h.05v-28.88c0-2.65-2.15-4.8-4.8-4.8h-61.72Z"/>
          <line class="cls-2" x1="201.7" y1="229.22" x2="235.07" y2="229.22"/>
          <path d="M172.01,228.22c3.07,1.42,5.15,2.59,6.25,3.51,2.63,2.19,3.62,5.11,2.96,8.76-.62,3.14-2.13,5.58-4.52,7.31-2.39,1.73-5.28,2.69-8.67,2.87l-.85,4.8h-3.56l.88-4.97c-2.82-.33-5.17-1.22-7.05-2.7-1.88-1.47-3.19-3.39-3.92-5.76l5.7-2.91c.95,3.07,3.07,4.84,6.34,5.32l2.02-11.39c-.66-.29-1.22-.55-1.68-.76-.46-.22-1-.49-1.62-.82-.62-.33-1.14-.64-1.54-.93-.4-.29-.87-.66-1.4-1.09-.53-.44-.93-.86-1.18-1.26-.26-.4-.57-.87-.93-1.42s-.58-1.1-.63-1.67c-.06-.56-.13-1.21-.22-1.94s-.03-1.48.19-2.24c.62-3.21,2.18-5.66,4.66-7.38,2.49-1.71,5.25-2.59,8.28-2.62l.85-4.8h3.56l-.91,5.13c2.05.47,3.8,1.33,5.26,2.59,1.46,1.25,2.58,2.81,3.34,4.66l-5.59,2.91c-1.06-2.08-2.43-3.42-4.11-4l-1.92,10.8ZM164.98,221.49c-.26,1.24-.06,2.26.6,3.05s1.7,1.53,3.12,2.22l1.72-9.72c-1.36.11-2.55.56-3.58,1.34-1.03.79-1.65,1.82-1.87,3.1ZM174.79,239.8c.29-1.24.09-2.26-.6-3.05-.69-.79-1.79-1.53-3.29-2.22l-1.77,9.99c1.55-.26,2.81-.8,3.8-1.65.99-.84,1.61-1.87,1.86-3.07Z"/>
          <path class="cls-4" d="M239.41,200.48c-2.65,0-4.8,2.15-4.8,4.8v28.88h.05c.96,16.91,16.54,30.36,35.61,30.36s34.65-13.45,35.61-30.36h.05v-28.88c0-2.65-2.15-4.8-4.8-4.8h-61.72Z"/>
          <path d="M271.49,228.22c3.07,1.42,5.15,2.59,6.25,3.51,2.63,2.19,3.62,5.11,2.96,8.76-.62,3.14-2.13,5.58-4.52,7.31-2.39,1.73-5.28,2.69-8.67,2.87l-.85,4.8h-3.56l.88-4.97c-2.82-.33-5.17-1.22-7.05-2.7-1.88-1.47-3.19-3.39-3.92-5.76l5.7-2.91c.95,3.07,3.07,4.84,6.34,5.32l2.02-11.39c-.66-.29-1.22-.55-1.68-.76-.46-.22-1-.49-1.62-.82-.62-.33-1.14-.64-1.54-.93-.4-.29-.87-.66-1.4-1.09-.53-.44-.93-.86-1.18-1.26-.26-.4-.57-.87-.93-1.42s-.58-1.1-.63-1.67c-.06-.56-.13-1.21-.22-1.94s-.03-1.48.19-2.24c.62-3.21,2.18-5.66,4.66-7.38,2.49-1.71,5.25-2.59,8.28-2.62l.85-4.8h3.56l-.91,5.13c2.05.47,3.8,1.33,5.26,2.59s2.58,2.81,3.34,4.66l-5.59,2.91c-1.06-2.08-2.43-3.42-4.11-4l-1.92,10.8ZM264.46,221.49c-.26,1.24-.06,2.26.6,3.05.66.79,1.7,1.53,3.12,2.22l1.72-9.72c-1.36.11-2.55.56-3.58,1.34-1.03.79-1.65,1.82-1.87,3.1ZM274.27,239.8c.29-1.24.09-2.26-.6-3.05-.69-.79-1.79-1.53-3.29-2.22l-1.77,9.99c1.55-.26,2.81-.8,3.8-1.65.99-.84,1.61-1.87,1.86-3.07Z"/>
        </g>
      </g>
    </g>
  </g>
</svg>