<?xml version="1.0" encoding="UTF-8"?>
<svg id="Layer_2" data-name="Layer 2" xmlns="http://www.w3.org/2000/svg" viewBox="0 0 1763.05 1300.61">
  <defs>
    <style>
      .cls-1 {
        fill: #fff;
      }

      .cls-2 {
        stroke: #231f20;
      }

      .cls-2, .cls-3, .cls-4, .cls-5, .cls-6, .cls-7, .cls-8 {
        stroke-linecap: round;
        stroke-linejoin: round;
      }

      .cls-2, .cls-9 {
        fill: none;
      }

      .cls-2, .cls-8 {
        stroke-width: 4px;
      }

      .cls-10 {
        opacity: .68;
      }

      .cls-11 {
        opacity: .15;
      }

      .cls-11, .cls-5, .cls-8, .cls-12 {
        fill: #161616;
      }

      .cls-3, .cls-4, .cls-13, .cls-7 {
        fill: #1130fe;
      }

      .cls-3, .cls-5, .cls-6 {
        stroke-width: 7px;
      }

      .cls-3, .cls-14, .cls-7, .cls-9, .cls-8 {
        stroke: #161616;
      }

      .cls-4 {
        stroke: #fff;
        stroke-width: 8px;
      }

      .cls-5, .cls-6 {
        stroke: #1130fe;
      }

      .cls-15 {
        fill: #231f20;
      }

      .cls-16 {
        fill: #0c1649;
      }

      .cls-17, .cls-14, .cls-6 {
        fill: #ededed;
      }

      .cls-14, .cls-9 {
        stroke-miterlimit: 10;
        stroke-width: 5px;
      }

      .cls-6 {
        opacity: .97;
      }

      .cls-7 {
        stroke-width: 9px;
      }
    </style>
  </defs>
  <g id="Layer_2-2" data-name="Layer 2">
    <g>
      <path class="cls-6" d="M1747.89,531.59c-89.18-1.8-178.37-3.59-267.55-5.39-1.64-.03-3.28.28-4.8.91C987.3,730.1,499.06,933.09,10.82,1136.09c-10.86,4.51-9.26,20.37,2.28,22.62,232.78,45.46,465.55,90.93,698.33,136.39,30.19,5.9,61.47-1.32,86.03-19.85,319.11-240.77,638.23-481.54,957.34-722.31,9-6.79,4.36-21.13-6.91-21.35Z"/>
      <path class="cls-5" d="M1347.24,565.22l-5.26,94.61,18.92,28.38h38.9c5.96-10.16,11.91-20.32,17.87-30.49-1.75-31.19-3.5-62.37-5.26-93.56"/>
      <polyline class="cls-5" points="1468.13 563.12 1483.9 651.43 1452.36 689.27 1429.24 690.32 1399.8 658.78 1408.21 558.91"/>
      <path class="cls-5" d="M1438.29,233.78l54.21,28.53c2.74,1.44,4.7,3.81,5.43,6.56,16.79,72.07,28.87,125.59,36.03,150.36,0,0,.53,1.83,5.34,62.32.04.56.14,2.02-.61,3.51-.78,1.53-1.98,2.28-2.44,2.55-10.22,3.75-20.45,7.5-30.67,11.25-4.51-17.13-9.02-34.25-13.53-51.38l12.2,51.15c.54,2.28.21,4.65-.95,6.74l-28.2,50.93c-1.96,3.53-6,5.79-10.44,5.82l-130.72.97c-2.75.02-5.42-.82-7.55-2.37l-44.94-32.78c-3.17-2.31-4.74-5.91-4.16-9.51l1.75-10.85c.55-3.4-.83-6.82-3.69-9.15l-19.13-15.55c-2.96-2.41-4.33-5.99-3.62-9.49l42.79-213.73c.7-3.5,3.36-6.43,7.06-7.79l41.56-15.3c7.48-2.75,9.64-11.24,4.22-16.58l-16.36-16.12c-2.81-2.77-3.74-6.66-2.43-10.2l16.57-44.92c1.58-4.28,6.08-7.17,11.15-7.17h64.37c4.68,0,8.92,2.47,10.78,6.29l20.27,41.69c1.69,3.48,1.12,7.5-1.5,10.5l-16.08,18.42c-4.32,4.95-2.77,12.13,3.29,15.32Z"/>
      <path class="cls-5" d="M1459.72,315.02c12.26,49.41,24.53,98.82,36.79,148.23"/>
      <line class="cls-3" x1="1317.8" y1="313.97" x2="1279.03" y2="507.58"/>
      <g>
        <path class="cls-13" d="M1186.61,875.08c-.29,0-.58-.03-.87-.09l-185.83-36.68c-11.2-.19-21.18-7.47-24.37-17.84l-120.57-392c-1.4-4.56-1.42-9.38-.06-13.94l78.36-361.42c.12-.56.35-1.1.68-1.58,13.5-19.86,31.47-34.61,51.95-42.65,4.33-1.7,8.83-3.13,13.39-4.25.35-.09.71-.13,1.08-.13h221.65c.16,0,.32,0,.48.03,6,.64,11.77,3.04,16.24,6.76,3.43,2.85,6.17,6.51,7.94,10.59.07.15.12.31.17.46l120.57,392c1.42,4.62,1.42,9.51,0,14.14l-120.57,392c-.13.41-.31.81-.55,1.17-2.47,3.72-5.14,7.39-7.93,10.9-13.21,16.63-29.87,30.74-49.52,41.95-.68.39-1.45.59-2.23.59Z"/>
        <path class="cls-12" d="M1222.02,9c2.36.25,8.37,1.2,13.84,5.75,3.87,3.22,5.79,6.85,6.68,8.91l120.57,392c1.15,3.75,1.15,7.74,0,11.49l-120.57,392c-2.32,3.49-4.88,7.03-7.71,10.59-15.21,19.15-32.92,32.1-48.23,40.84-62.08-12.26-124.16-24.51-186.24-36.77-9.5,0-17.86-5.97-20.53-14.66l-120.57-392c-1.15-3.75-1.15-7.74,0-11.49,26.13-120.53,52.27-241.06,78.4-361.59,8.39-12.33,24.08-30.87,49.87-41,4.4-1.73,8.7-3.06,12.82-4.07h221.65M1222.02,0h-221.65c-.73,0-1.45.09-2.15.26-4.75,1.17-9.45,2.66-13.96,4.43-21.33,8.38-40.01,23.7-54.03,44.31-.65.95-1.11,2.02-1.35,3.15l-30.62,141.2-47.71,220.05c-1.57,5.37-1.53,11.03.12,16.38l120.57,392c3.71,12.08,15.22,20.6,28.18,21l89.36,17.64,96.09,18.97c.58.11,1.16.17,1.74.17,1.55,0,3.09-.4,4.46-1.18,20.15-11.49,37.25-25.98,50.82-43.06,2.87-3.61,5.61-7.38,8.16-11.21.48-.72.85-1.51,1.11-2.34l120.57-392c1.69-5.49,1.69-11.29,0-16.78l-120.57-392c-.1-.32-.21-.63-.34-.93-2.04-4.72-5.22-8.96-9.19-12.26-6.6-5.49-13.78-7.26-18.65-7.78-.32-.03-.63-.05-.95-.05h0Z"/>
      </g>
      <g>
        <path class="cls-17" d="M955.26,874.16c-11,0-20.57-7.07-23.81-17.58l-120.57-392c-1.47-4.79-1.47-9.85,0-14.64l120.57-392c3.23-10.52,12.8-17.58,23.81-17.58h223.54c11,0,20.57,7.07,23.81,17.58l120.57,392c1.47,4.79,1.47,9.85,0,14.64l-120.57,392c-3.23,10.52-12.8,17.58-23.81,17.58h-223.54Z"/>
        <path class="cls-12" d="M1178.8,44.85c8.96,0,16.87,5.84,19.5,14.41l120.57,392c1.2,3.91,1.2,8.09,0,12l-120.57,392c-2.63,8.56-10.55,14.41-19.5,14.41h-223.54c-8.96,0-16.87-5.84-19.5-14.41l-120.57-392c-1.2-3.91-1.2-8.09,0-12l120.57-392c2.63-8.56,10.55-14.41,19.5-14.41h223.54M1178.8,35.85h-223.54c-12.99,0-24.29,8.34-28.11,20.76l-120.57,392c-1.74,5.66-1.74,11.63,0,17.29l120.57,392c3.82,12.42,15.11,20.76,28.11,20.76h223.54c12.99,0,24.29-8.34,28.11-20.76l120.57-392c1.74-5.65,1.74-11.63,0-17.29l-120.57-392c-3.82-12.42-15.11-20.76-28.11-20.76h0Z"/>
      </g>
      <g class="cls-10">
        <path class="cls-13" d="M973.29,847.42c-10.65,0-20.11-7.16-23.01-17.41l-103.41-366.27c-1.2-4.25-1.2-8.74,0-12.99l103.41-366.26c2.89-10.25,12.36-17.41,23.01-17.41h187.47c10.65,0,20.11,7.16,23.01,17.41l103.41,366.27c1.2,4.25,1.2,8.74,0,12.99l-103.41,366.27c-2.89,10.25-12.36,17.41-23.01,17.41h-187.47Z"/>
        <path class="cls-12" d="M1160.76,70.58c9.13,0,17.16,6.07,19.64,14.86l103.41,366.27c1.02,3.63,1.02,7.46,0,11.09l-103.41,366.27c-2.48,8.79-10.5,14.86-19.64,14.86h-187.47c-9.13,0-17.16-6.07-19.64-14.86l-103.41-366.27c-1.02-3.63-1.02-7.46,0-11.09l103.41-366.27c2.48-8.79,10.5-14.86,19.64-14.86h187.47M1160.76,63.58h-187.47c-12.21,0-23.06,8.21-26.38,19.96l-103.41,366.27c-1.38,4.87-1.38,10.02,0,14.89l103.41,366.27c3.32,11.75,14.16,19.96,26.38,19.96h187.47c12.21,0,23.06-8.21,26.38-19.96l103.42-366.27c1.38-4.87,1.38-10.02,0-14.89l-103.41-366.27c-3.32-11.75-14.16-19.96-26.38-19.96h0Z"/>
      </g>
      <line class="cls-7" x1="1199.46" y1="41.81" x2="1238" y2="5.05"/>
      <path class="cls-9" d="M993.89,69.39l-97.97,378.38,106,366.13h182.02"/>
      <line class="cls-14" x1="960.16" y1="838.41" x2="1001.92" y2="813.9"/>
      <line class="cls-14" x1="892.15" y1="447.77" x2="848.52" y2="462.56"/>
      <path class="cls-3" d="M1012.02,680.44l-6.17,110.97,22.19,33.29h45.62c6.99-11.92,13.97-23.84,20.96-35.76-2.06-36.58-4.11-73.16-6.17-109.74"/>
      <polyline class="cls-3" points="1153.82 677.98 1172.31 781.55 1135.32 825.94 1108.19 827.17 1073.67 790.18 1083.53 673.04"/>
      <path class="cls-3" d="M1118.82,291.69l63.59,33.46c3.21,1.69,5.51,4.47,6.37,7.69,19.69,84.54,33.86,147.31,42.26,176.36,0,0,.62,2.15,6.27,73.1.05.66.17,2.37-.72,4.12-.91,1.79-2.32,2.68-2.87,2.99-11.99,4.4-23.98,8.8-35.97,13.2-5.29-20.09-10.58-40.18-15.87-60.26l14.31,59.99c.64,2.67.25,5.46-1.11,7.91l-33.08,59.74c-2.3,4.15-7.03,6.79-12.24,6.83l-153.32,1.13c-3.23.02-6.36-.96-8.86-2.78l-52.72-38.45c-3.71-2.71-5.56-6.94-4.88-11.16l2.05-12.72c.64-3.99-.98-8-4.33-10.73l-22.44-18.24c-3.47-2.82-5.07-7.02-4.25-11.13l50.18-250.69c.82-4.1,3.94-7.55,8.28-9.14l48.75-17.95c8.77-3.23,11.31-13.18,4.95-19.44l-19.19-18.91c-3.3-3.25-4.38-7.81-2.85-11.96l19.44-52.69c1.85-5.02,7.13-8.41,13.08-8.41h75.5c5.49,0,10.46,2.9,12.64,7.37l23.78,48.9c1.98,4.08,1.31,8.8-1.76,12.31l-18.86,21.6c-5.06,5.8-3.25,14.23,3.86,17.97Z"/>
      <path class="cls-3" d="M1143.95,386.98c14.39,57.95,28.77,115.91,43.16,173.86"/>
      <line class="cls-3" x1="977.49" y1="385.75" x2="932.02" y2="612.84"/>
      <path class="cls-3" d="M583.34,862.98l-7.94,142.85,28.57,42.85h58.73c8.99-15.34,17.99-30.69,26.98-46.03-2.65-47.09-5.29-94.17-7.94-141.26"/>
      <polyline class="cls-3" points="765.87 859.8 789.68 993.13 742.06 1050.27 707.15 1051.85 662.7 1004.24 675.4 853.45"/>
      <path class="cls-3" d="M720.82,362.56l81.85,43.07c4.14,2.18,7.1,5.75,8.2,9.9,25.35,108.82,43.58,189.62,54.39,227.02,0,0,.8,2.77,8.07,94.1.07.85.22,3.06-.93,5.3-1.17,2.31-2.98,3.45-3.69,3.85-15.44,5.66-30.87,11.32-46.31,16.99-6.81-25.86-13.62-51.72-20.43-77.57l18.42,77.22c.82,3.44.32,7.03-1.43,10.18l-42.58,76.89c-2.96,5.34-9.05,8.74-15.75,8.79l-197.36,1.46c-4.16.03-8.19-1.24-11.4-3.58l-67.86-49.49c-4.78-3.49-7.16-8.93-6.29-14.36l2.64-16.38c.83-5.14-1.26-10.3-5.57-13.81l-28.88-23.48c-4.47-3.63-6.53-9.04-5.47-14.33l64.6-322.69c1.06-5.28,5.07-9.71,10.65-11.77l62.75-23.1c11.29-4.16,14.56-16.97,6.38-25.03l-24.7-24.34c-4.24-4.18-5.64-10.06-3.67-15.4l25.02-67.83c2.38-6.46,9.18-10.83,16.84-10.83h97.18c7.07,0,13.47,3.73,16.27,9.49l30.61,62.94c2.55,5.25,1.69,11.32-2.26,15.85l-24.27,27.81c-6.52,7.47-4.19,18.32,4.97,23.14Z"/>
      <path class="cls-3" d="M753.17,485.23c18.52,74.6,37.03,149.2,55.55,223.79"/>
      <line class="cls-3" x1="538.9" y1="483.64" x2="480.37" y2="775.95"/>
      <path class="cls-12" d="M1162.8,70.58c9.13,0,17.16,6.07,19.64,14.86l103.41,366.27c1.02,3.63,1.02,7.46,0,11.09l-103.41,366.27c-2.48,8.79-10.5,14.86-19.64,14.86h-187.47c-9.13,0-17.16-6.07-19.64-14.86l-103.41-366.27c-1.02-3.63-1.02-7.46,0-11.09l103.41-366.27c2.48-8.79,10.5-14.86,19.64-14.86h187.47M1162.8,63.58h-187.47c-12.21,0-23.06,8.21-26.38,19.96l-103.42,366.27c-1.38,4.87-1.38,10.02,0,14.89l103.41,366.27c3.32,11.75,14.16,19.96,26.38,19.96h187.47c12.21,0,23.06-8.21,26.38-19.96l103.41-366.27c1.38-4.87,1.38-10.02,0-14.89l-103.41-366.27c-3.32-11.75-14.16-19.96-26.38-19.96h0Z"/>
      <g>
        <path class="cls-13" d="M1386.19,199.85c-.37.2-1.07.52-1.98.51-.87,0-1.54-.31-1.9-.51-1.57-1.21-3.51-2.94-5.44-5.36-2.21-2.76-3.68-5.5-4.64-7.62-.11-.22-.41-.9-.25-1.69.21-1.02,1.13-1.8,2.25-1.81,2.85-.35,6.05-.59,9.54-.61,3.88-.02,7.4.23,10.5.61,1.08.04,1.98.78,2.25,1.81.21.81-.03,1.54-.13,1.78-.77,1.96-2.1,4.74-4.32,7.53-2.13,2.66-4.31,4.34-5.88,5.36Z"/>
        <path class="cls-13" d="M1384.26,206.74c-.39,0-.71-.32-.72-.71l-.04-7.3c0-.4.32-.72.71-.72.41,0,.72.32.72.71l.04,7.3c0,.4-.32.72-.71.72h0Z"/>
        <g>
          <path class="cls-12" d="M1386.44,187.63c-.43.78.31,1.84,1.64,2.36s2.75.3,3.18-.48-.31-1.84-1.64-2.36-2.75-.3-3.18.48Z"/>
          <path class="cls-12" d="M1386.32,188.13c-.03.26-.21,2.47,1.49,3.88,1.92,1.59,4.55.75,5.12.56,1.22-.39,2.2-1.12,2.11-1.3-.16-.34-4,1.69-5.57.35-.46-.39-.6-.97-.65-1.42"/>
        </g>
        <g>
          <path class="cls-12" d="M1382.46,187.63c.43.78-.31,1.84-1.64,2.36s-2.75.3-3.18-.48.31-1.84,1.64-2.36,2.75-.3,3.18.48Z"/>
          <path class="cls-12" d="M1382.57,188.13c.03.26.21,2.47-1.49,3.88-1.92,1.59-4.55.75-5.12.56-1.22-.39-2.2-1.12-2.11-1.3.16-.34,4,1.69,5.57.35.46-.39.6-.97.65-1.42"/>
        </g>
        <path class="cls-13" d="M1411.73,172.12c-.24,0-.47-.08-.67-.24-.75-.6-4.74-3.56-9.35-2.28-1.43.4-2.75,1.15-3.9,2.23-.43.41-1.11.38-1.52-.05-.41-.43-.38-1.11.05-1.52,1.41-1.32,3.02-2.24,4.8-2.73,5.62-1.55,10.38,1.96,11.27,2.68.46.37.54,1.05.17,1.51-.21.26-.52.4-.84.4Z"/>
        <path class="cls-13" d="M1357.06,172.12c-.31,0-.63-.14-.84-.4-.37-.46-.3-1.14.17-1.51.9-.72,5.65-4.23,11.27-2.68,1.77.49,3.39,1.41,4.8,2.73.43.41.46,1.09.05,1.52-.41.43-1.09.46-1.52.05-1.15-1.08-2.47-1.83-3.9-2.23-4.61-1.27-8.6,1.68-9.35,2.28-.2.16-.44.24-.67.24Z"/>
        <path class="cls-13" d="M1376.91,211.2c-.31,0-.63-.14-.84-.4-.37-.46-.3-1.14.17-1.51.9-.72,5.65-4.23,11.27-2.68,1.77.49,3.39,1.41,4.8,2.73.43.41.46,1.09.05,1.52-.41.43-1.09.46-1.52.05-1.15-1.08-2.47-1.83-3.9-2.23-4.61-1.27-8.6,1.68-9.35,2.28-.2.16-.44.24-.67.24Z"/>
      </g>
      <g>
        <path class="cls-12" d="M1059.41,251.74c-.37.2-1.07.52-1.98.51-.87,0-1.54-.31-1.9-.51-1.57-1.21-3.51-2.94-5.44-5.36-2.21-2.76-3.68-5.5-4.64-7.62-.11-.22-.41-.9-.25-1.69.21-1.02,1.13-1.8,2.25-1.81,2.85-.35,6.05-.59,9.54-.61,3.88-.02,7.4.23,10.5.61,1.08.04,1.98.78,2.25,1.81.21.81-.03,1.54-.13,1.78-.77,1.96-2.1,4.74-4.32,7.53-2.13,2.66-4.31,4.34-5.88,5.36Z"/>
        <path class="cls-12" d="M1057.48,258.63c-.39,0-.71-.32-.72-.71l-.04-7.3c0-.4.32-.72.71-.72.41,0,.72.32.72.71l.04,7.3c0,.4-.32.72-.71.72h0Z"/>
        <g>
          <path class="cls-13" d="M1059.66,239.52c-.43.78.31,1.84,1.64,2.36s2.75.3,3.18-.48-.31-1.84-1.64-2.36-2.75-.3-3.18.48Z"/>
          <path class="cls-13" d="M1059.54,240.02c-.03.26-.21,2.47,1.49,3.88,1.92,1.59,4.55.75,5.12.56,1.22-.39,2.2-1.12,2.11-1.3-.16-.34-4,1.69-5.57.35-.46-.39-.6-.97-.65-1.42"/>
        </g>
        <g>
          <path class="cls-13" d="M1055.68,239.52c.43.78-.31,1.84-1.64,2.36s-2.75.3-3.18-.48.31-1.84,1.64-2.36,2.75-.3,3.18.48Z"/>
          <path class="cls-13" d="M1055.8,240.02c.03.26.21,2.47-1.49,3.88-1.92,1.59-4.55.75-5.12.56-1.22-.39-2.2-1.12-2.11-1.3.16-.34,4,1.69,5.57.35.46-.39.6-.97.65-1.42"/>
        </g>
        <path class="cls-12" d="M1063.72,263.88c.49,1.77.64,4.77-.89,5.81-1.01.69-1.79-.14-4.79-.13-3.25,0-4.15.98-5.17.25-1.49-1.06-1.06-4.21-.51-5.94.18-.55,1.9-5.67,5.68-5.68,3.16,0,5.1,3.56,5.68,5.68Z"/>
        <line class="cls-8" x1="1029.76" y1="224.88" x2="1044.57" y2="224.88"/>
        <line class="cls-8" x1="1070.53" y1="224.45" x2="1085.34" y2="224.45"/>
      </g>
      <path class="cls-5" d="M1341.51,160.79c-2.33-.68-5.28-1.98-7.66-4.6-6.41-7.03-7.19-21.85,2.55-29.11,9.4-7,23.22-2.95,28.08,5.11,2.05,3.4,2.25,7.09,2.04,9.7"/>
      <path class="cls-5" d="M1406.43,143.67c-.42-2.39-.54-5.61.75-8.9,3.49-8.85,16.45-16.08,27.25-10.53,10.43,5.35,12.88,19.55,7.79,27.46-2.15,3.34-5.37,5.14-7.81,6.11"/>
      <path class="cls-3" d="M1006.56,202.92c-2.43-.68-5.5-1.98-7.99-4.6-6.68-7.03-7.5-21.85,2.66-29.11,9.81-7,24.22-2.95,29.29,5.11,2.14,3.4,2.34,7.09,2.13,9.7"/>
      <path class="cls-3" d="M1087.29,187.33c-.43-2.39-.57-5.61.78-8.9,3.64-8.85,17.15-16.08,28.43-10.53,10.88,5.35,13.44,19.55,8.13,27.46-2.24,3.34-5.6,5.14-8.15,6.11"/>
      <path class="cls-3" d="M576.39,252.64c-3.47-1.02-7.87-2.96-11.42-6.85-9.55-10.48-10.71-32.57,3.81-43.39,14.01-10.44,34.62-4.4,41.86,7.61,3.06,5.07,3.35,10.57,3.04,14.46"/>
      <path class="cls-3" d="M675.31,226.98c-.62-3.57-.81-8.37,1.12-13.27,5.2-13.19,24.52-23.97,40.62-15.7,15.55,7.98,19.21,29.14,11.62,40.93-3.21,4.98-8.01,7.66-11.64,9.11"/>
      <g>
        <path class="cls-1" d="M594.31,256.84c-1.58.03-2.85,1.33-2.82,2.92l.28,17.25h.03c.74,10.09,10.17,17.97,21.57,17.78,11.39-.19,20.56-8.37,20.97-18.48h.03s-.28-17.25-.28-17.25c-.03-1.58-1.33-2.85-2.92-2.82l-36.86.6Z"/>
        <path class="cls-15" d="M645.35,317.79c-.53.3-1.54.77-2.86.78-1.26,0-2.23-.41-2.76-.69-2.31-1.71-5.15-4.18-8.01-7.64-3.27-3.95-5.46-7.88-6.91-10.94-.16-.32-.62-1.3-.4-2.44.28-1.48,1.59-2.63,3.22-2.67,4.12-.57,8.75-1,13.81-1.11,5.62-.12,10.73.16,15.23.64,1.57.04,2.89,1.09,3.31,2.57.33,1.17-.01,2.23-.14,2.59-1.07,2.85-2.93,6.93-6.09,11.01-3.03,3.91-6.14,6.4-8.39,7.9Z"/>
        <line class="cls-4" x1="631.48" y1="273.4" x2="651.41" y2="273.08"/>
        <g>
          <polyline class="cls-2" points="632.69 335.92 642.71 326.78 652.61 335.59"/>
          <line class="cls-2" x1="642.47" y1="316.21" x2="642.71" y2="326.78"/>
        </g>
        <g>
          <path class="cls-13" d="M645.43,300.07c-.6,1.15.49,2.66,2.43,3.38,1.94.72,3.99.37,4.59-.77s-.49-2.66-2.43-3.38c-1.94-.72-3.99-.37-4.59.77Z"/>
          <path class="cls-13" d="M645.27,300.79c-.03.37-.24,3.59,2.25,5.59,2.82,2.27,6.61.98,7.44.69,1.76-.6,3.16-1.68,3.03-1.93-.23-.49-5.76,2.54-8.06.64-.68-.56-.9-1.39-.97-2.04"/>
        </g>
        <g>
          <path class="cls-13" d="M639.65,300.17c.63,1.13-.4,2.68-2.32,3.46-1.91.78-3.98.5-4.62-.62s.4-2.68,2.32-3.46,3.98-.5,4.62.62Z"/>
          <path class="cls-13" d="M639.83,300.88c.04.37.36,3.58-2.06,5.66-2.74,2.36-6.58,1.19-7.42.94-1.78-.54-3.21-1.57-3.1-1.83.22-.5,5.84,2.35,8.08.37.66-.58.85-1.42.9-2.07"/>
        </g>
        <path d="M613.74,273.09c1.85.82,3.1,1.5,3.77,2.03,1.59,1.28,2.21,3.02,1.85,5.2-.34,1.88-1.22,3.35-2.63,4.41s-3.13,1.66-5.15,1.8l-.46,2.88-2.13.03.48-2.97c-1.69-.17-3.1-.68-4.24-1.54-1.14-.86-1.94-1.99-2.4-3.4l3.38-1.79c.6,1.82,1.88,2.86,3.84,3.11l1.1-6.82c-.4-.17-.73-.31-1.01-.44-.28-.13-.6-.28-.98-.47-.38-.19-.69-.37-.93-.54-.24-.17-.53-.38-.85-.64-.32-.26-.56-.5-.72-.74-.16-.24-.35-.52-.57-.84s-.36-.65-.39-.99c-.04-.34-.09-.72-.15-1.16s-.03-.88.09-1.34c.34-1.92,1.24-3.4,2.71-4.45,1.47-1.05,3.11-1.6,4.92-1.65l.46-2.88,2.13-.03-.49,3.07c1.23.26,2.28.76,3.17,1.49s1.57,1.65,2.04,2.75l-3.31,1.79c-.65-1.23-1.48-2.02-2.49-2.35l-1.04,6.47ZM609.48,269.14c-.14.75-.01,1.35.39,1.81s1.03.9,1.89,1.3l.93-5.82c-.81.08-1.52.36-2.12.84-.61.48-.97,1.1-1.09,1.87ZM615.51,279.98c.16-.75.03-1.35-.39-1.81-.42-.46-1.09-.89-1.99-1.29l-.96,5.98c.92-.17,1.67-.51,2.25-1.02.58-.51.94-1.13,1.08-1.85Z"/>
        <path class="cls-1" d="M653.72,255.87c-1.58.03-2.85,1.33-2.82,2.92l.28,17.25h.03c.74,10.09,10.17,17.97,21.57,17.78s20.56-8.37,20.97-18.48h.03s-.28-17.25-.28-17.25c-.03-1.58-1.33-2.85-2.92-2.82l-36.86.6Z"/>
        <path d="M673.15,272.12c1.85.82,3.1,1.5,3.77,2.03,1.59,1.28,2.21,3.02,1.85,5.2-.34,1.88-1.22,3.35-2.63,4.41s-3.13,1.66-5.15,1.8l-.46,2.88-2.13.03.48-2.97c-1.69-.17-3.1-.68-4.24-1.54-1.14-.86-1.94-1.99-2.4-3.4l3.38-1.79c.6,1.82,1.88,2.86,3.84,3.11l1.1-6.82c-.4-.17-.73-.31-1.01-.44-.28-.13-.6-.28-.98-.47-.38-.19-.69-.37-.93-.54-.24-.17-.53-.38-.85-.64-.32-.26-.56-.5-.72-.74-.16-.24-.35-.52-.57-.84s-.36-.65-.39-.99c-.04-.34-.09-.72-.15-1.16s-.03-.88.09-1.34c.34-1.92,1.24-3.4,2.71-4.45,1.47-1.05,3.11-1.6,4.92-1.65l.46-2.88,2.13-.03-.49,3.07c1.23.26,2.28.76,3.17,1.49s1.57,1.65,2.04,2.75l-3.31,1.79c-.65-1.23-1.48-2.02-2.49-2.35l-1.04,6.47ZM668.89,268.17c-.14.75-.01,1.35.39,1.81s1.03.9,1.89,1.3l.93-5.82c-.81.08-1.52.36-2.12.84-.61.48-.97,1.1-1.09,1.87ZM674.92,279.01c.16-.75.03-1.35-.39-1.81-.42-.46-1.09-.89-1.99-1.29l-.96,5.98c.92-.17,1.67-.51,2.25-1.02.58-.51.94-1.13,1.08-1.85Z"/>
      </g>
      <path class="cls-11" d="M1235.52,581.79c-5.65-70.95-6.27-73.1-6.27-73.1-8.4-29.05-22.56-91.83-42.25-176.36-.86-3.23-3.16-6-6.37-7.69l-63.59-33.46c-7.12-3.74-8.93-12.17-3.86-17.97l18.86-21.6c3.07-3.51,3.74-8.23,1.75-12.31l-17.48-35.94h0c8.73-6.18,12.26-17.43,8.64-27.49l-1.49-4.13c-2.1-5.84-7.54-9.83-13.74-10.09h0c-11.34-.47-21.53,6.88-24.64,17.8l-1.03,3.59h-52.04l-.19-4.26c-.37-8.54-6.07-15.92-14.24-18.43h0c-10.47-3.22-21.68,2-25.95,12.09h0c-3.64,8.6-1.56,18.55,5.22,24.97l7.22,6.84-14.72,39.89c-1.53,4.15-.45,8.72,2.85,11.97l19.19,18.91c6.35,6.26,3.82,16.21-4.95,19.44l-48.75,17.95c-4.34,1.6-7.45,5.04-8.28,9.14l-50.18,250.69c-.82,4.11.78,8.31,4.25,11.13l22.44,18.24c3.35,2.72,4.97,6.74,4.32,10.73l-2.05,12.72c-.68,4.22,1.17,8.45,4.88,11.16l52.72,38.45c2.49,1.82,5.63,2.8,8.86,2.78l86.75-.64-.17,2-70.99,1.15-6.17,110.97,22.19,33.29h45.62c4.14-7.07,8.29-14.14,12.43-21.21l22.09,23.67,27.13-1.23,36.99-44.39-18.5-103.57-15.48-1.09,11.41-.08c5.21-.04,9.94-2.68,12.24-6.83l33.08-59.74c1.36-2.45,1.75-5.24,1.11-7.91l-14.31-59.99c5.29,20.09,10.58,40.18,15.87,60.26,11.99-4.4,23.98-8.8,35.98-13.2.55-.31,1.95-1.19,2.87-2.99.89-1.75.77-3.46.72-4.12Z"/>
      <polyline class="cls-16" points="790.45 996.96 842.36 991.34 990.96 1026.58 1082.87 992.88 1157.94 997.47 986.36 1129.22 868.4 1121.56 851.55 1090.92 771.89 1060.28 742.83 1054.1"/>
      <path class="cls-16" d="M1189.85,879.77c37.62,3.23,75.23,6.47,112.85,9.7,27.92-20.77,55.83-41.53,83.74-62.3-42.38,1.02-84.77,2.04-127.15,3.06-6.64,2.72-13.28,5.45-19.92,8.17-16.51,13.79-33.02,27.57-49.53,41.36Z"/>
      <polygon class="cls-16" points="1454.87 692.88 1462.53 701.56 1550.36 702.07 1597.34 667.34 1503.89 662.75 1475.81 667.85 1454.87 692.88"/>
    </g>
  </g>
</svg>