<?xml version="1.0" encoding="UTF-8"?>
<svg id="Layer_2" data-name="Layer 2" xmlns="http://www.w3.org/2000/svg" viewBox="0 0 171.02 175.64">
  <defs>
    <style>
      .cls-1 {
        fill: #231f20;
      }

      .cls-2 {
        fill: #1130fe;
      }

      .cls-3 {
        fill: #ededed;
      }
    </style>
  </defs>
  <g id="Layer_2-2" data-name="Layer 2">
    <g>
      <g>
        <path class="cls-3" d="M1.94,173.7l21.02-37.01-16.75-22.77c-2.69-3.66-3.17-8.48-1.26-12.6l22.17-47.63c-8.73-4.74-14.47-14.06-14.47-24.23C12.65,14.29,25,1.94,40.19,1.94c13.12,0,24.15,9.15,26.89,21.55h35.88c2.74-12.4,13.77-21.55,26.89-21.55,15.18,0,27.54,12.35,27.54,27.54,0,9.88-5.3,18.87-13.59,23.75l22.39,48.11c1.91,4.11,1.43,8.94-1.26,12.6l-16.53,22.46,20.7,37.32H1.94Z"/>
        <path class="cls-3" d="M169.08,175.64H1.94c-.69,0-1.33-.37-1.68-.96-.35-.6-.35-1.33-.01-1.93l20.4-35.91-16.01-21.75c-3.11-4.23-3.67-9.81-1.45-14.56l21.42-46.03c-8.62-5.39-13.9-14.82-13.9-25.01C10.71,13.22,23.93,0,40.19,0c6.74,0,13.33,2.33,18.56,6.56,4.76,3.85,8.21,9.13,9.84,14.99h32.85c1.63-5.86,5.09-11.14,9.84-14.99,5.22-4.23,11.81-6.56,18.56-6.56,16.25,0,29.48,13.22,29.48,29.48,0,9.81-4.96,19.03-13.05,24.48l21.67,46.57c2.21,4.76,1.66,10.34-1.45,14.56l-15.79,21.45,20.09,36.23c.33.6.32,1.33-.03,1.92-.35.59-.98.96-1.67.96ZM5.27,171.76h160.52l-19.1-34.44c-.37-.66-.32-1.48.13-2.09l16.53-22.46c2.27-3.08,2.68-7.16,1.06-10.63l-22.39-48.11c-.42-.91-.09-1.98.78-2.49,7.8-4.58,12.64-13.04,12.64-22.08,0-14.12-11.48-25.6-25.6-25.6-11.92,0-22.43,8.42-24.99,20.03-.2.89-.98,1.52-1.89,1.52h-35.88c-.91,0-1.7-.63-1.89-1.52-2.56-11.6-13.07-20.03-24.99-20.03-14.12,0-25.6,11.48-25.6,25.6,0,9.38,5.16,18.01,13.45,22.53.9.49,1.26,1.59.83,2.52L6.71,102.16c-1.62,3.47-1.21,7.54,1.06,10.63l16.75,22.77c.45.62.5,1.44.12,2.11l-19.38,34.11Z"/>
      </g>
      <g>
        <path class="cls-2" d="M39.54,151.12l-26.66-36.22c-3.38-4.59-3.99-10.67-1.58-15.84l28.72-61.7c2.56-5.5,8.08-9.02,14.15-9.02h62.67c6.07,0,11.59,3.52,14.15,9.02l28.72,61.7c2.41,5.17,1.8,11.24-1.58,15.84l-26.66,36.22c-2.94,4-7.61,6.36-12.57,6.36H52.11c-4.96,0-9.63-2.36-12.57-6.36Z"/>
        <path class="cls-1" d="M89.11,115.39c-.47.26-1.35.65-2.51.64-1.1-.01-1.94-.39-2.4-.64-1.99-1.53-4.44-3.72-6.89-6.78-2.8-3.5-4.66-6.96-5.87-9.65-.14-.28-.52-1.14-.32-2.13.27-1.29,1.43-2.28,2.85-2.29,3.61-.44,7.66-.75,12.08-.77,4.91-.03,9.37.29,13.3.77,1.37.05,2.51.99,2.85,2.29.27,1.03-.04,1.95-.16,2.26-.97,2.48-2.65,6.01-5.47,9.53-2.7,3.37-5.46,5.5-7.44,6.78Z"/>
        <circle class="cls-2" cx="40.14" cy="29.48" r="22.69"/>
        <path class="cls-1" d="M54.53,28.75c.01.57-.02,1.07-.08,1.49-6.36,4.02-12.72,8.04-19.09,12.06-5.81-2.35-9.61-7.76-9.62-13.55,0-7.43,6.22-14.39,14.39-14.39,9.17,0,14.25,8.77,14.39,14.39Z"/>
        <circle class="cls-2" cx="129.78" cy="29.48" r="22.69"/>
        <path class="cls-2" d="M160.8,168.86H10.22c7.14-12.57,14.28-25.13,21.42-37.7,36.06-.04,72.13-.07,108.19-.11,6.99,12.6,13.98,25.21,20.97,37.81Z"/>
        <g>
          <path class="cls-1" d="M97.17,130.19c-.28,0-.56-.12-.75-.36-1.63-1.99-4.39-4.48-8.29-5.02-1.15-.16-2.04-.1-2.52-.07-4.08.27-7.38,2.3-9.43,3.95-.42.34-1.03.27-1.36-.15-.34-.42-.27-1.03.15-1.36,3.25-2.63,6.89-4.14,10.52-4.38.51-.03,1.58-.1,2.92.08,4.53.63,7.68,3.45,9.53,5.71.34.41.28,1.03-.14,1.36-.18.15-.4.22-.61.22Z"/>
          <path class="cls-1" d="M86.68,124.18c-.53,0-.97-.43-.97-.96l-.06-9.24c0-.54.43-.97.96-.98,0,0,0,0,0,0,.53,0,.97.43.97.96l.06,9.24c0,.54-.43.97-.96.98,0,0,0,0,0,0Z"/>
        </g>
        <g>
          <path class="cls-2" d="M89.44,99.92c-.54.99.39,2.33,2.07,2.99s3.48.38,4.02-.61-.39-2.33-2.07-2.99-3.48-.38-4.02.61Z"/>
          <path class="cls-2" d="M89.29,100.54c-.03.33-.27,3.13,1.88,4.92,2.43,2.02,5.76.95,6.49.71,1.55-.5,2.78-1.42,2.68-1.64-.2-.43-5.07,2.14-7.05.44-.58-.5-.76-1.23-.82-1.79"/>
        </g>
        <g>
          <path class="cls-2" d="M84.39,99.92c.54.99-.39,2.33-2.07,2.99-1.68.66-3.48.38-4.02-.61s.39-2.33,2.07-2.99,3.48-.38,4.02.61Z"/>
          <path class="cls-2" d="M84.54,100.54c.03.33.27,3.13-1.88,4.92-2.43,2.02-5.76.95-6.49.71-1.55-.5-2.78-1.42-2.68-1.64.2-.43,5.07,2.14,7.05.44.58-.5.76-1.23.82-1.79"/>
        </g>
        <path class="cls-1" d="M115.39,28.75c-.01.57.02,1.07.08,1.49,6.36,4.02,12.72,8.04,19.09,12.06,5.81-2.35,9.61-7.76,9.62-13.55,0-7.43-6.22-14.39-14.39-14.39-9.17,0-14.25,8.77-14.39,14.39Z"/>
      </g>
      <path class="cls-1" d="M69.9,58.6s-.02,0-.04,0c-2.57-.02-5.17-.04-7.77-.04-3.57,0-7.18,0-10.72.04-.01,0-.02,0-.04,0-1.99,0-3.62-1.6-3.64-3.6-.02-2.01,1.59-3.65,3.6-3.67,3.57-.03,7.21-.05,10.8-.04,2.63,0,5.24.02,7.83.04,2.01.02,3.62,1.66,3.6,3.67-.02,2-1.64,3.6-3.63,3.6Z"/>
      <path class="cls-1" d="M118.63,58.6s-.02,0-.04,0c-2.57-.02-5.17-.04-7.77-.04-3.57,0-7.18,0-10.72.04-.01,0-.02,0-.04,0-1.99,0-3.62-1.6-3.64-3.6-.02-2.01,1.59-3.65,3.6-3.67,3.57-.03,7.21-.05,10.8-.04,2.63,0,5.24.02,7.83.04,2.01.02,3.62,1.66,3.6,3.67-.02,2-1.64,3.6-3.63,3.6Z"/>
      <path class="cls-3" d="M48.73,80.21c-.86.01-1.61.59-1.82,1.42-1.76,6.65-1.67,11.88-1.22,15.54.57,4.55,1.65,6.28,1.24,10.78-.5,5.36-2.36,6.3-2.23,11.02.13,4.69,2,4.85,2.48,9.83.56,5.87-1.92,6.82-1.86,12.68.01.9.13,1.79.42,3.55,1.18,7.29,2.27,7.38,2.43,10.61.28,5.7-3.02,7.78-1.25,12.12.25.62.33,2.64,1.74,2.65,4.31.03,8.61.06,12.92.09.94,0,1.25-.65,1.74-1.09,3.49-3.08,2.59-9.26,1.68-15.01-1.38-8.7-3.42-9.6-2.35-13.51,1.12-4.12,1.24-5.31,1.67-7.67.15-.85.24-1.84.19-3.11-.19-5.2-2.21-5.6-2.48-10.9-.21-4.3,1.08-4.85,1.86-10.9.77-5.98-.22-7.52,0-13.27.12-3.15.6-7.42,2.15-12.55.37-1.23-.56-2.48-1.85-2.46-5.15.06-10.31.12-15.46.19Z"/>
      <path class="cls-3" d="M124.07,80.96c.86.01,1.61.59,1.83,1.42,1.76,6.72,1.67,12,1.22,15.69-.57,4.59-1.65,6.34-1.24,10.88.5,5.41,2.36,6.36,2.23,11.12-.13,4.73-2,4.89-2.48,9.92-.56,5.92,1.92,6.89,1.86,12.79,0,.84-.13,1.77-.42,3.59-1.16,7.44-2.02,7.44-2.17,10.48-.31,5.94,2.86,8.09,1.01,12.48-.29.68-.37,2.64-1.75,2.64-4.31.03-8.61.06-12.92.09-.98,0-1.3-.68-1.74-1.1-2.3-2.17-1.86-5.74-.69-14.12,1.68-11.99,1.91-12.76,1.35-14.67-1.03-3.5-1.16-4.93-1.67-7.73-.15-.86-.24-1.86-.19-3.15.19-5.25,2.21-5.65,2.48-11,.21-4.34-1.08-4.89-1.86-11-.77-6.03.22-7.59,0-13.39-.12-3.18-.6-7.51-2.16-12.69-.37-1.23.56-2.47,1.85-2.46,5.15.06,10.31.13,15.46.19Z"/>
      <g>
        <path class="cls-1" d="M120.94,77.78s-.02,0-.03,0l-19.58-.42c-.8-.02-1.44-.68-1.42-1.49.02-.8.68-1.44,1.49-1.42l19.58.42c.8.02,1.44.68,1.42,1.49-.02.79-.66,1.42-1.45,1.42Z"/>
        <path class="cls-1" d="M101.36,77.36c-.48,0-.95-.24-1.23-.67-.43-.68-.23-1.58.44-2.01l16.03-10.22c.68-.43,1.58-.23,2.01.44.43.68.23,1.58-.44,2.01l-16.03,10.22c-.24.15-.51.23-.78.23Z"/>
      </g>
      <g>
        <path class="cls-1" d="M52.18,77.45c-.79,0-1.44-.63-1.45-1.42-.02-.8.62-1.47,1.42-1.49l19.58-.42c.78-.02,1.47.62,1.49,1.42.02.8-.62,1.47-1.42,1.49l-19.58.42s-.02,0-.03,0Z"/>
        <path class="cls-1" d="M71.76,77.03c-.27,0-.54-.07-.78-.23l-16.03-10.22c-.68-.43-.88-1.33-.44-2.01.43-.68,1.33-.88,2.01-.44l16.03,10.22c.68.43.88,1.33.44,2.01-.28.43-.75.67-1.23.67Z"/>
      </g>
    </g>
  </g>
</svg>