<?xml version="1.0" encoding="UTF-8"?>
<svg id="Layer_2" data-name="Layer 2" xmlns="http://www.w3.org/2000/svg" viewBox="0 0 254.57 225.77">
  <defs>
    <style>
      .cls-1 {
        fill: none;
        stroke: #1130fe;
      }

      .cls-1, .cls-2 {
        stroke-miterlimit: 10;
        stroke-width: 3px;
      }

      .cls-2 {
        fill: #ededed;
        stroke: #294dff;
      }
    </style>
  </defs>
  <g id="Layer_2-2" data-name="Layer 2">
    <g>
      <path class="cls-2" d="M253.27,41.63l-19.92,34.51c-1.96,3.4-5.58,5.49-9.51,5.49h-33.52c-3.92,0-7.54,2.09-9.5,5.48l-55.22,95.43c-1.96,3.39-5.58,5.48-9.5,5.48h-33.52c-3.92,0-7.54,2.09-9.51,5.49l-16.69,28.91c-1.43,2.48-5.01,2.47-6.43-.02L2.94,140.03c-1.93-3.39-1.92-7.55.03-10.93L73.48,6.99c1.96-3.4,5.58-5.49,9.51-5.49h140.95c3.94,0,7.57,2.11,9.52,5.52l19.82,34.6"/>
      <path class="cls-1" d="M241.84,44.49l-14.94,25.87c-.8,1.39-2.28,2.24-3.89,2.24h-29.88c-1.6,0-3.08-.86-3.89-2.24l-14.94-25.87c-.8-1.39-.8-3.1,0-4.49l14.94-25.87c.8-1.39,2.28-2.24,3.89-2.24h29.88c1.6,0,3.08.86,3.89,2.24l14.94,25.87c.8,1.39.8,3.1,0,4.49Z"/>
    </g>
  </g>
</svg>