<?xml version="1.0" encoding="UTF-8"?>
<svg id="Layer_2" data-name="Layer 2" xmlns="http://www.w3.org/2000/svg" viewBox="0 0 251.77 223.18">
  <defs>
    <style>
      .cls-1 {
        fill: #1130fe;
      }

      .cls-2 {
        fill: none;
        stroke: #ededed;
        stroke-miterlimit: 10;
        stroke-width: 3px;
      }
    </style>
  </defs>
  <g id="Layer_2-2" data-name="Layer 2">
    <g>
      <path class="cls-1" d="M0,183.05l19.92-34.51c1.96-3.4,5.58-5.49,9.51-5.49h33.52c3.92,0,7.54-2.09,9.5-5.48l55.22-95.43c1.96-3.39,5.58-5.48,9.5-5.48h33.52c3.92,0,7.54-2.09,9.51-5.49L197.24,1.65c1.27-2.21,4.46-2.2,5.73.01l47.36,82.98c1.93,3.39,1.92,7.55-.03,10.93l-70.5,122.12c-1.96,3.4-5.58,5.49-9.51,5.49H29.34c-3.94,0-7.57-2.11-9.52-5.52L0,183.05"/>
      <path class="cls-2" d="M80.72,185.17l-14.94,25.87c-.8,1.39-2.28,2.24-3.89,2.24h-29.88c-1.6,0-3.08-.86-3.89-2.24l-14.94-25.87c-.8-1.39-.8-3.1,0-4.49l14.94-25.87c.8-1.39,2.28-2.24,3.89-2.24h29.88c1.6,0,3.08.86,3.89,2.24l14.94,25.87c.8,1.39.8,3.1,0,4.49Z"/>
    </g>
  </g>
</svg>