<?xml version="1.0" encoding="UTF-8"?>
<svg id="Layer_2" data-name="Layer 2" xmlns="http://www.w3.org/2000/svg" viewBox="0 0 388.09 254.3">
  <defs>
    <style>
      .cls-1 {
        fill: #ededed;
        stroke: #ededed;
        stroke-miterlimit: 10;
        stroke-width: .25px;
      }

      .cls-2 {
        fill: #1130fe;
      }
    </style>
  </defs>
  <g id="Layer_2-2" data-name="Layer 2">
    <g>
      <rect class="cls-2" y="0" width="388.09" height="254.3"/>
      <g>
        <g>
          <path class="cls-1" d="M146.9,11.04l-.59,28.17c-4.17-.02-8.34-.04-12.52-.06.11,33.59.23,67.18.34,100.77-10.94-.12-21.87-.24-32.81-.36l-34.1-58.62c-3.16-5.44-6.23-10.97-9-16.9.2,5.63.4,11.67.4,18.49v28.87h20.17v28.17H12.25v-28.17h17.4V39.21H12.45l.49-28.17h47.85l30.25,52.69c4.15,7.51,8.01,14.73,12.06,23.23-.59-7.91-.89-15.92-.89-24.62v-23.13h-19.57V11.04h64.26Z"/>
          <path class="cls-1" d="M256.75,102.87c0,4.55.03,17.21-8.89,26.72-10.54,11.23-26.35,10.35-33.06,9.98-17.03-.95-28.83-9.94-33.39-13.86.4,4.35.49,8.8.4,13.84h-26.89c0-16.71-.4-32.52-2.17-51.11h29.56c.89,13.94,12.36,23.92,27.68,23.92,8.5,0,11.86-3.06,11.86-8.3,0-10.08-13.84-13.25-26-16.31-26.59-7.51-42.21-17.1-42.21-40.83,0-26.79,19.87-37.67,40.24-37.67,14.63,0,25.8,5.34,32.23,14.14.1-3.95.4-7.91.89-12.36h28.17c-1.68,15.52-2.67,30.55-2.87,47.65h-29.46c-2.08-12.85-9.79-21.45-22.54-21.45-7.02,0-11.47,2.57-11.47,8.7,0,6.82,6.82,8.9,20.46,12.85,26.89,8.4,47.45,14.53,47.45,44.09Z"/>
          <path class="cls-1" d="M374.47,140.26c-36.43-.23-72.86-.47-109.29-.7v-28.17h15.92V39.21h-15.52V11.04h109.53c-.39,23.63.2,39.54,1.78,54.17h-26.89c-1.09-8.21-1.68-16.81-1.88-26h-35.59v23.73h7.22c.4-4.55,1.09-9.39,2.08-14.63h20.86c-.99,9.59-1.38,18.09-1.38,25.6s.39,15.52,1.38,25.51h-20.86c-.89-5.24-1.58-9.89-2.08-14.24h-7.22v26.2h36.68c.2-9.39.79-19.38,1.68-30.84h26.99c-.62,10.3-1.22,20.6-1.8,30.91-.55,9.61-1.08,19.21-1.6,28.82Z"/>
        </g>
        <g>
          <path class="cls-1" d="M142.49,204.98c0,20.56-18.68,34.8-46.27,34.8-26.74-.27-53.48-.54-80.23-.8-.11-9.19-.23-18.38-.34-27.57,8.86.07,17.73.14,26.59.2v-72.17h-16.71v-28.17h67.12c28.57,0,41.62,11.76,41.62,29.66,0,18.78-7.91,27.58-24.61,30.84,22.54,3.16,32.82,15.22,32.82,33.22ZM74.08,161.98h14.63c6.62,0,11.76-3.46,11.76-11.37,0-8.5-4.25-11.17-12.46-11.17h-13.94v22.54ZM108.29,198.85c0-9.19-5.14-13.44-16.81-13.44h-17.4v26.2h18.68c10.87,0,15.52-4.05,15.52-12.75Z"/>
          <path class="cls-1" d="M257.33,204.81c0,27.09-17.6,38.46-40.14,38.46-15.42,0-28.18-5.14-35.2-15.62.4,4.35.49,8.8.4,13.84h-26.89c0-16.71-.4-32.52-2.17-51.11h29.56c.89,13.94,12.36,23.92,27.68,23.92,8.5,0,11.86-3.06,11.86-8.3,0-10.08-13.84-13.25-26-16.31-26.59-7.51-42.21-17.1-42.21-40.83,0-26.79,19.87-37.66,40.24-37.66,14.63,0,25.8,5.34,32.23,14.14.1-3.95.4-7.91.89-12.36h28.17c-1.68,15.52-2.67,30.55-2.87,47.65h-29.46c-2.08-12.85-9.79-21.45-22.54-21.45-7.02,0-11.47,2.57-11.47,8.7,0,6.82,6.82,8.9,20.46,12.85,26.89,8.4,47.45,14.53,47.45,44.09Z"/>
          <path class="cls-1" d="M376.87,239.78h-111.33v-28.17h15.95v-72.17h-15.55v-28.17h109.75c-.39,23.63.2,39.54,1.79,54.17h-26.94c-1.09-8.21-1.68-16.81-1.88-26h-35.66v23.73h7.23c.4-4.55,1.09-9.39,2.08-14.63h20.9c-.99,9.59-1.39,18.09-1.39,25.6s.39,15.52,1.39,25.51h-20.9c-.89-5.24-1.59-9.89-2.08-14.24h-7.23v26.2h36.75c.2-9.39.79-19.38,1.68-30.84h27.04c-1.78,20.17-2.38,37.47-1.58,59.02Z"/>
        </g>
      </g>
    </g>
  </g>
</svg>