<?xml version="1.0" encoding="UTF-8"?>
<svg id="Layer_2" data-name="Layer 2" xmlns="http://www.w3.org/2000/svg" viewBox="0 0 565.68 368.15">
  <defs>
    <style>
      .cls-1 {
        fill: none;
        stroke: #294dff;
        stroke-linecap: square;
        stroke-linejoin: round;
        stroke-width: 25px;
      }

      .cls-2 {
        fill: #294dff;
      }
    </style>
  </defs>
  <g id="Layer_2-2" data-name="Layer 2">
    <g>
      <path class="cls-1" d="M16.4,240.24l56.17-131.74,35.74,24.51c12.77-40.17,25.53-80.34,38.3-120.51,32,114.38,64,228.77,96,343.15,9.36-45.28,18.72-90.55,28.09-135.83,10.21,9.36,20.43,18.72,30.64,28.08,9.53-34.89,19.06-69.79,28.6-104.68,11.4,27.23,22.81,54.47,34.21,81.7,17.53-52.94,35.06-105.87,52.6-158.81,16.51-.34,33.02-.68,49.53-1.02"/>
      <path class="cls-2" d="M565.68,92.97c0,23.93-13.08,33.27-27.54,43.74-11.84,8.6-14.33,12.84-14.33,22.68v1.62h-39.5v-1.62c0-20.56,5.98-28.29,27.17-44.49,7.1-5.36,11.09-8.72,11.09-16.08s-4.61-10.59-12.46-10.59c-14.45,0-20.69,11.84-23.18,28.79h-34.52c-.25-23.05-.75-41.87-2.99-64.43h29.66c.62,8.35,1,15.95,1,23.55,5.48-18.44,23.06-25.8,41.75-25.8,26.92,0,43.86,15.7,43.86,42.62ZM529.79,192.29c0,13.71-11.34,24.55-24.43,24.55s-24.55-10.84-24.55-24.55,11.34-24.42,24.55-24.42,24.43,10.84,24.43,24.42Z"/>
    </g>
  </g>
</svg>