<?xml version="1.0" encoding="UTF-8"?>
<svg id="Layer_2" data-name="Layer 2" xmlns="http://www.w3.org/2000/svg" viewBox="0 0 304.65 267.53">
  <defs>
    <style>
      .cls-1 {
        fill: #294dff;
        stroke: #ededed;
        stroke-miterlimit: 10;
        stroke-width: 3px;
      }

      .cls-2 {
        fill: #ededed;
      }
    </style>
  </defs>
  <g id="Layer_2-2" data-name="Layer 2">
    <g>
      <path class="cls-1" d="M221.59,1.5H83.06c-4.39,0-8.45,2.34-10.65,6.15L3.15,127.62c-2.2,3.81-2.2,8.49,0,12.3l69.26,119.97c2.2,3.81,6.26,6.15,10.65,6.15h138.53c4.39,0,8.45-2.34,10.65-6.15l69.26-119.97c2.2-3.81,2.2-8.49,0-12.3L232.24,7.65c-2.2-3.81-6.26-6.15-10.65-6.15Z"/>
      <path class="cls-2" d="M216.93,9.57H87.72c-4.39,0-8.45,2.34-10.65,6.15L12.46,127.62c-2.2,3.81-2.2,8.49,0,12.3l64.61,111.9c2.2,3.81,6.26,6.15,10.65,6.15h129.21c4.39,0,8.45-2.34,10.65-6.15l64.61-111.9c2.2-3.81,2.2-8.49,0-12.3L227.58,15.72c-2.2-3.81-6.26-6.15-10.65-6.15Z"/>
    </g>
  </g>
</svg>