<?xml version="1.0" encoding="UTF-8"?>
<svg id="Layer_2" data-name="Layer 2" xmlns="http://www.w3.org/2000/svg" viewBox="0 0 631.49 550.59">
  <defs>
    <style>
      .cls-1 {
        stroke-width: 4px;
      }

      .cls-1, .cls-2, .cls-3, .cls-4 {
        stroke-linecap: round;
        stroke-linejoin: round;
      }

      .cls-1, .cls-3, .cls-4 {
        fill: none;
        stroke: #231f20;
      }

      .cls-5 {
        stroke: #161616;
        stroke-miterlimit: 10;
        stroke-width: 3px;
      }

      .cls-5, .cls-2, .cls-6 {
        fill: #ededed;
      }

      .cls-2 {
        stroke: #ededed;
        stroke-width: 8px;
      }

      .cls-7 {
        fill: #231f20;
      }

      .cls-8 {
        fill: #1130fe;
      }

      .cls-3 {
        stroke-width: 6px;
      }

      .cls-4 {
        stroke-width: 15px;
      }

      .cls-9 {
        fill: #161616;
      }
    </style>
  </defs>
  <g id="Layer_2-2" data-name="Layer 2">
    <g>
      <g>
        <path class="cls-5" d="M466.72,1.5H164.77c-4.39,0-8.45,2.34-10.65,6.15L3.15,269.14c-2.2,3.81-2.2,8.49,0,12.3l150.97,261.49c2.2,3.81,6.26,6.15,10.65,6.15h301.95c4.39,0,8.45-2.34,10.65-6.15l150.97-261.49c2.2-3.81,2.2-8.49,0-12.3L477.37,7.65c-2.2-3.81-6.26-6.15-10.65-6.15Z"/>
        <path class="cls-9" d="M457.08,18.2H174.41c-4.39,0-8.45,2.34-10.65,6.15L22.43,269.14c-2.2,3.81-2.2,8.49,0,12.3l141.33,244.8c2.2,3.81,6.26,6.15,10.65,6.15h282.67c4.39,0,8.45-2.34,10.65-6.15l141.33-244.8c2.2-3.81,2.2-8.49,0-12.3L467.73,24.35c-2.2-3.81-6.26-6.15-10.65-6.15Z"/>
      </g>
      <g>
        <path class="cls-2" d="M143.35,452.46l43.36-76.34-34.56-46.97c-5.55-7.54-6.54-17.5-2.59-25.98l45.73-98.26c-18-9.79-29.85-29-29.85-49.99,0-31.32,25.48-56.81,56.81-56.81,27.06,0,49.82,18.88,55.46,44.45h74.01c5.65-25.57,28.41-44.45,55.46-44.45,31.32,0,56.81,25.48,56.81,56.81,0,20.37-10.92,38.93-28.04,48.99l46.19,99.26c3.95,8.49,2.96,18.44-2.59,25.98l-34.09,46.33,42.69,76.98H143.35Z"/>
        <g>
          <path class="cls-8" d="M225.89,412.63l-65.79-89.4c-3.38-4.59-3.99-10.67-1.58-15.84l67.85-145.8c2.56-5.5,8.08-9.02,14.15-9.02h150.44c6.07,0,11.59,3.52,14.15,9.02l67.85,145.8c2.41,5.17,1.8,11.24-1.58,15.84l-65.79,89.4c-2.94,4-7.61,6.36-12.57,6.36h-154.56c-4.96,0-9.63-2.36-12.57-6.36Z"/>
          <path class="cls-7" d="M323.18,332.16c-.96.53-2.79,1.35-5.18,1.32-2.27-.02-4.01-.8-4.96-1.32-4.11-3.15-9.16-7.68-14.21-14-5.77-7.22-9.61-14.37-12.12-19.91-.28-.57-1.08-2.36-.65-4.4.55-2.66,2.94-4.7,5.88-4.72,7.44-.91,15.79-1.54,24.92-1.6,10.13-.06,19.34.6,27.43,1.6,2.82.11,5.17,2.04,5.88,4.72.56,2.12-.09,4.02-.34,4.66-2.01,5.11-5.47,12.4-11.29,19.66-5.57,6.96-11.26,11.34-15.35,14Z"/>
          <circle class="cls-8" cx="222.15" cy="154.93" r="46.81"/>
          <path class="cls-7" d="M251.83,153.44c.03,1.18-.05,2.22-.16,3.08-13.12,8.29-26.25,16.59-39.37,24.88-11.98-4.84-19.83-16.01-19.85-27.96-.02-15.32,12.83-29.69,29.69-29.69,18.91,0,29.4,18.09,29.69,29.69Z"/>
          <circle class="cls-8" cx="407.08" cy="154.93" r="46.81"/>
          <path class="cls-8" d="M471.07,442.46H160.43c14.73-25.93,29.45-51.85,44.18-77.77,74.4-.08,148.8-.15,223.2-.23,14.42,26,28.84,52,43.26,78Z"/>
          <g>
            <path class="cls-1" d="M295.24,358.07c4.45-3.6,11.56-8,20.57-8.6,1.13-.07,3.1-.19,5.61.15,9.63,1.33,15.84,7.96,18.38,11.06"/>
            <line class="cls-1" x1="318.04" y1="329.23" x2="318.16" y2="348.29"/>
          </g>
          <g>
            <path class="cls-8" d="M323.85,300.24c-1.11,2.05.8,4.81,4.27,6.17s7.19.79,8.3-1.26c1.11-2.05-.8-4.81-4.27-6.17s-7.19-.79-8.3,1.26Z"/>
            <path class="cls-8" d="M323.54,301.54c-.07.67-.55,6.46,3.88,10.15,5.01,4.17,11.88,1.95,13.39,1.47,3.19-1.03,5.74-2.93,5.52-3.39-.41-.89-10.46,4.4-14.55.91-1.2-1.02-1.57-2.54-1.69-3.7"/>
          </g>
          <g>
            <path class="cls-8" d="M313.44,300.24c1.11,2.05-.8,4.81-4.27,6.17-3.47,1.36-7.19.79-8.3-1.26s.8-4.81,4.27-6.17c3.47-1.36,7.19-.79,8.3,1.26Z"/>
            <path class="cls-8" d="M313.75,301.54c.07.67.55,6.46-3.88,10.15-5.01,4.17-11.88,1.95-13.39,1.47-3.19-1.03-5.74-2.93-5.52-3.39.41-.89,10.46,4.4,14.55.91,1.2-1.02,1.57-2.54,1.69-3.7"/>
          </g>
          <path class="cls-7" d="M377.4,153.44c-.03,1.18.05,2.22.16,3.08,13.12,8.29,26.25,16.59,39.37,24.88,11.98-4.84,19.83-16.01,19.85-27.96.02-15.32-12.83-29.69-29.69-29.69-18.91,0-29.4,18.09-29.69,29.69Z"/>
        </g>
        <path class="cls-4" d="M283.54,207.5c-5.33-.05-10.7-.08-16.1-.09-7.47-.01-14.87.02-22.2.09"/>
        <path class="cls-4" d="M384.08,207.5c-5.33-.05-10.7-.08-16.1-.09-7.47-.01-14.87.02-22.2.09"/>
        <path class="cls-6" d="M239.87,259.58c-1.77.02-3.31,1.22-3.76,2.93-3.63,13.72-3.45,24.51-2.51,32.05,1.17,9.38,3.41,12.96,2.55,22.24-1.02,11.06-4.86,13-4.6,22.73.27,9.67,4.13,10,5.11,20.28,1.15,12.11-3.97,14.08-3.83,26.15.02,1.85.28,3.7.86,7.32,2.42,15.03,4.68,15.23,5.01,21.88.59,11.77-6.24,16.05-2.58,25,.52,1.28.68,5.45,3.6,5.47,8.88.06,17.76.12,26.64.19,1.94.01,2.57-1.35,3.59-2.25,7.19-6.35,5.34-19.1,3.47-30.96-2.84-17.95-7.05-19.81-4.85-27.87,2.32-8.5,2.56-10.96,3.44-15.81.32-1.75.49-3.8.39-6.42-.4-10.72-4.57-11.55-5.11-22.48-.44-8.86,2.22-10,3.83-22.48,1.59-12.33-.46-15.51,0-27.37.25-6.49,1.24-15.31,4.44-25.89.77-2.55-1.15-5.11-3.81-5.08-10.63.13-21.26.26-31.89.39Z"/>
        <path class="cls-6" d="M395.3,261.15c1.77.02,3.32,1.23,3.77,2.94,3.64,13.86,3.45,24.75,2.51,32.37-1.17,9.46-3.41,13.08-2.55,22.44,1.02,11.17,4.86,13.12,4.6,22.94-.27,9.76-4.13,10.09-5.11,20.47-1.15,12.22,3.97,14.21,3.83,26.39-.02,1.73-.28,3.65-.86,7.4-2.39,15.34-4.16,15.35-4.49,21.62-.63,12.26,5.9,16.68,2.08,25.74-.59,1.41-.76,5.44-3.6,5.46-8.89.06-17.77.12-26.66.19-2.01.01-2.68-1.39-3.6-2.26-4.75-4.48-3.84-11.84-1.42-29.12,3.47-24.74,3.94-26.33,2.8-30.25-2.11-7.23-2.4-10.16-3.44-15.95-.32-1.77-.49-3.84-.39-6.49.4-10.82,4.57-11.66,5.11-22.69.44-8.95-2.22-10.1-3.83-22.69-1.59-12.44.46-15.65,0-27.62-.25-6.56-1.24-15.49-4.46-26.18-.76-2.54,1.16-5.1,3.81-5.07,10.63.13,21.26.26,31.9.39Z"/>
        <g>
          <path class="cls-3" d="M388.83,251.58c-13.46-.29-26.93-.58-40.39-.87"/>
          <path class="cls-3" d="M381.51,229.62c-11.03,7.03-22.05,14.06-33.08,21.08"/>
        </g>
        <g>
          <path class="cls-3" d="M246.99,250.9c13.46-.29,26.93-.58,40.39-.87"/>
          <path class="cls-3" d="M254.31,228.94c11.03,7.03,22.05,14.06,33.08,21.08"/>
        </g>
      </g>
    </g>
  </g>
</svg>