<?xml version="1.0" encoding="UTF-8"?>
<svg id="Layer_2" data-name="Layer 2" xmlns="http://www.w3.org/2000/svg" viewBox="0 0 289.03 254.4">
  <defs>
    <style>
      .cls-1 {
        stroke: #294dff;
        stroke-miterlimit: 10;
        stroke-width: 6px;
      }

      .cls-1, .cls-2 {
        fill: #ededed;
      }

      .cls-3 {
        fill: #294dff;
      }
    </style>
  </defs>
  <g id="Layer_2-2" data-name="Layer 2">
    <g>
      <path class="cls-1" d="M209.12,3H79.91c-4.39,0-8.45,2.34-10.65,6.15L4.65,121.05c-2.2,3.81-2.2,8.49,0,12.3l64.61,111.9c2.2,3.81,6.26,6.15,10.65,6.15h129.21c4.39,0,8.45-2.34,10.65-6.15l64.61-111.9c2.2-3.81,2.2-8.49,0-12.3L219.77,9.15c-2.2-3.81-6.26-6.15-10.65-6.15Z"/>
      <rect class="cls-3" x="93.73" y="184.73" width="99.06" height="13.28"/>
      <rect class="cls-3" x="112.8" y="201.07" width="60.94" height="13.28"/>
      <rect class="cls-3" x="120.8" y="217.75" width="44.94" height="30.98"/>
      <polygon class="cls-3" points="96.85 180.99 96.85 53.67 141.79 16.9 189.11 52.31 96.85 180.99"/>
      <path class="cls-3" d="M144.5,114.22c-.65.9-1.8,2.31-2.45,3.21.02,20.39.04,40.79.06,61.18l2.35-.44c.01-21.32.02-42.64.03-63.96Z"/>
      <polygon class="cls-2" points="144.07 111.64 142.09 114.38 142.09 76.5 144.1 76.5 144.07 111.64"/>
      <polygon class="cls-3" points="188.94 130.52 158.81 180.05 188.94 180.05 188.94 130.52"/>
    </g>
  </g>
</svg>