<?xml version="1.0" encoding="UTF-8"?>
<svg id="Layer_2" data-name="Layer 2" xmlns="http://www.w3.org/2000/svg" viewBox="0 0 346.36 363.34">
  <defs>
    <style>
      .cls-1 {
        fill: #161616;
        stroke: #161616;
        stroke-width: 29px;
      }

      .cls-1, .cls-2, .cls-3 {
        stroke-linecap: round;
        stroke-linejoin: round;
      }

      .cls-4 {
        fill: #fff;
      }

      .cls-2 {
        fill: none;
        stroke: #231f20;
        stroke-width: 4px;
      }

      .cls-3 {
        stroke: #fff;
        stroke-width: 8px;
      }

      .cls-3, .cls-5 {
        fill: #1130fe;
      }

      .cls-6 {
        fill: #231f20;
      }
    </style>
  </defs>
  <g id="Layer_2-2" data-name="Layer 2">
    <g>
      <path class="cls-1" d="M330.41,213.77l-50.4-108.29c18.24-6.4,31.32-23.75,31.32-44.17,0-25.85-20.96-46.81-46.81-46.81s-45.52,19.69-46.75,44.45h-91.44c-1.23-24.76-21.69-44.45-46.75-44.45s-46.81,20.96-46.81,46.81c0,21.15,14.03,39.01,33.28,44.82L15.96,213.77c-2.41,5.17-1.8,11.24,1.58,15.84l38.41,52.19c-12.69,22.35-25.39,44.69-38.08,67.04h310.64l-37.57-67.74,37.89-51.49c3.38-4.59,3.99-10.67,1.58-15.84Z"/>
      <g>
        <path class="cls-5" d="M83.33,319.01L17.54,229.61c-3.38-4.59-3.99-10.67-1.58-15.84L83.81,67.97c2.56-5.5,8.08-9.02,14.15-9.02h150.44c6.07,0,11.59,3.52,14.15,9.02l67.85,145.8c2.41,5.17,1.8,11.24-1.58,15.84l-65.79,89.4c-2.94,4-7.61,6.36-12.57,6.36H95.9c-4.96,0-9.63-2.36-12.57-6.36Z"/>
        <path class="cls-4" d="M90.45,127.22c-2.86,0-5.17,2.31-5.17,5.17v31.09h.05c1.04,18.21,17.8,32.68,38.33,32.68s37.3-14.48,38.33-32.68h.05v-31.09c0-2.86-2.31-5.17-5.17-5.17h-66.43Z"/>
        <path class="cls-6" d="M180.62,238.54c-.96.53-2.79,1.35-5.18,1.32-2.27-.02-4.01-.8-4.96-1.32-4.11-3.15-9.16-7.68-14.21-14-5.77-7.22-9.61-14.37-12.12-19.91-.28-.57-1.08-2.36-.65-4.4.55-2.66,2.94-4.7,5.88-4.72,7.44-.91,15.79-1.54,24.92-1.6,10.13-.06,19.34.6,27.43,1.6,2.82.11,5.17,2.04,5.88,4.72.56,2.12-.09,4.02-.34,4.66-2.01,5.11-5.47,12.4-11.29,19.66-5.57,6.96-11.26,11.34-15.35,14Z"/>
        <line class="cls-3" x1="156.94" y1="158.16" x2="192.86" y2="158.16"/>
        <circle class="cls-5" cx="79.58" cy="61.31" r="46.81"/>
        <path class="cls-6" d="M109.27,59.81c.03,1.18-.05,2.22-.16,3.08-13.12,8.29-26.25,16.59-39.37,24.88-11.98-4.84-19.83-16.01-19.85-27.96-.02-15.32,12.83-29.69,29.69-29.69,18.91,0,29.4,18.09,29.69,29.69Z"/>
        <circle class="cls-5" cx="264.52" cy="61.31" r="46.81"/>
        <path class="cls-5" d="M328.5,348.84H17.86c14.73-25.93,29.45-51.85,44.18-77.77,74.4-.08,148.8-.15,223.2-.23,14.42,26,28.84,52,43.26,78Z"/>
        <g>
          <polyline class="cls-2" points="157.27 270.84 175.59 254.67 193.18 270.84"/>
          <line class="cls-2" x1="175.48" y1="235.61" x2="175.59" y2="254.67"/>
        </g>
        <g>
          <path class="cls-5" d="M181.28,206.62c-1.11,2.05.8,4.81,4.27,6.17s7.19.79,8.3-1.26-.8-4.81-4.27-6.17c-3.47-1.36-7.19-.79-8.3,1.26Z"/>
          <path class="cls-5" d="M180.97,207.92c-.07.67-.55,6.46,3.88,10.15,5.01,4.17,11.88,1.95,13.39,1.47,3.19-1.03,5.74-2.93,5.52-3.39-.41-.89-10.46,4.4-14.55.91-1.2-1.02-1.57-2.54-1.69-3.7"/>
        </g>
        <g>
          <path class="cls-5" d="M170.87,206.62c1.11,2.05-.8,4.81-4.27,6.17-3.47,1.36-7.19.79-8.3-1.26s.8-4.81,4.27-6.17c3.47-1.36,7.19-.79,8.3,1.26Z"/>
          <path class="cls-5" d="M171.18,207.92c.07.67.55,6.46-3.88,10.15-5.01,4.17-11.88,1.95-13.39,1.47-3.19-1.03-5.74-2.93-5.52-3.39.41-.89,10.46,4.4,14.55.91,1.2-1.02,1.57-2.54,1.69-3.7"/>
        </g>
        <path class="cls-6" d="M234.83,59.81c-.03,1.18.05,2.22.16,3.08,13.12,8.29,26.25,16.59,39.37,24.88,11.98-4.84,19.83-16.01,19.85-27.96.02-15.32-12.83-29.69-29.69-29.69-18.91,0-29.4,18.09-29.69,29.69Z"/>
        <path d="M124.99,157.08c3.3,1.53,5.55,2.79,6.73,3.77,2.83,2.36,3.89,5.5,3.19,9.43-.67,3.38-2.29,6-4.87,7.87-2.58,1.87-5.69,2.9-9.33,3.09l-.92,5.17h-3.83l.95-5.34c-3.03-.35-5.56-1.32-7.59-2.9-2.03-1.58-3.43-3.65-4.22-6.2l6.14-3.13c1.03,3.3,3.3,5.21,6.82,5.72l2.18-12.26c-.71-.31-1.31-.59-1.81-.82-.49-.24-1.07-.53-1.74-.88-.67-.35-1.22-.69-1.66-1-.44-.31-.94-.71-1.51-1.18-.57-.47-1-.92-1.27-1.35-.28-.43-.61-.94-1.01-1.53s-.62-1.19-.68-1.79c-.06-.61-.14-1.3-.24-2.09s-.03-1.59.21-2.41c.67-3.45,2.34-6.1,5.02-7.94,2.68-1.84,5.65-2.78,8.92-2.82l.92-5.17h3.83l-.98,5.52c2.2.51,4.09,1.44,5.66,2.78s2.77,3.02,3.6,5.02l-6.02,3.13c-1.14-2.24-2.62-3.68-4.42-4.31l-2.06,11.62ZM117.42,149.84c-.27,1.34-.06,2.43.65,3.28s1.83,1.64,3.36,2.39l1.86-10.46c-1.46.12-2.75.6-3.85,1.45-1.11.85-1.78,1.96-2.02,3.34ZM127.97,169.54c.31-1.34.1-2.43-.65-3.28-.75-.85-1.93-1.64-3.54-2.39l-1.91,10.75c1.67-.27,3.03-.87,4.09-1.77,1.06-.91,1.73-2.01,2.01-3.31Z"/>
        <path class="cls-4" d="M197.52,127.22c-2.86,0-5.17,2.31-5.17,5.17v31.09h.05c1.04,18.21,17.8,32.68,38.33,32.68s37.3-14.48,38.33-32.68h.05v-31.09c0-2.86-2.31-5.17-5.17-5.17h-66.43Z"/>
        <path d="M232.06,157.08c3.3,1.53,5.55,2.79,6.73,3.77,2.83,2.36,3.89,5.5,3.19,9.43-.67,3.38-2.29,6-4.87,7.87-2.58,1.87-5.69,2.9-9.33,3.09l-.92,5.17h-3.83l.95-5.34c-3.03-.35-5.56-1.32-7.59-2.9-2.03-1.58-3.43-3.65-4.22-6.2l6.14-3.13c1.03,3.3,3.3,5.21,6.82,5.72l2.18-12.26c-.71-.31-1.31-.59-1.81-.82-.49-.24-1.07-.53-1.74-.88-.67-.35-1.22-.69-1.66-1-.44-.31-.94-.71-1.51-1.18-.57-.47-1-.92-1.27-1.35-.28-.43-.61-.94-1.01-1.53s-.62-1.19-.68-1.79c-.06-.61-.14-1.3-.24-2.09s-.03-1.59.21-2.41c.67-3.45,2.34-6.1,5.02-7.94,2.68-1.84,5.65-2.78,8.92-2.82l.92-5.17h3.83l-.98,5.52c2.2.51,4.09,1.44,5.66,2.78s2.77,3.02,3.6,5.02l-6.02,3.13c-1.14-2.24-2.62-3.68-4.42-4.31l-2.06,11.62ZM224.49,149.84c-.27,1.34-.06,2.43.65,3.28s1.83,1.64,3.36,2.39l1.86-10.46c-1.46.12-2.75.6-3.85,1.45-1.11.85-1.78,1.96-2.02,3.34ZM235.04,169.54c.31-1.34.1-2.43-.65-3.28-.75-.85-1.93-1.64-3.54-2.39l-1.91,10.75c1.67-.27,3.03-.87,4.09-1.77,1.06-.91,1.73-2.01,2.01-3.31Z"/>
      </g>
    </g>
  </g>
</svg>