<?xml version="1.0" encoding="UTF-8"?>
<svg id="Layer_2" data-name="Layer 2" xmlns="http://www.w3.org/2000/svg" viewBox="0 0 605.03 630.3">
  <defs>
    <style>
      .cls-1 {
        fill: #fff;
      }

      .cls-2 {
        fill: #00b295;
      }

      .cls-3 {
        fill: #294dff;
      }
    </style>
  </defs>
  <g id="Layer_1-2" data-name="Layer 1">
    <g>
      <path class="cls-1" d="M576.67,300.39l-.37-.31-1.96-1.39c-21.06-13.53-43.79-28.31-66.53-43.1-4.65-3.03-9.3-6.05-13.94-9.06-1.45-1.18-2.9-2.35-4.34-3.53,1.33-3.08,2.66-6.17,3.99-9.25l7.4-16.99,39.19,19.72c4.39,2.21,9.08,3.33,13.92,3.33,8.63,0,16.94-3.67,22.83-10.06,5.91-6.42,8.76-14.77,8.03-23.51l-7.35-88.21-5.1-88.81c-.94-16.38-14.54-29.21-30.96-29.21-6.29,0-12.39,1.92-17.62,5.55l-72.71,50.47-74.36,48.82c-9.36,6.14-14.68,16.9-13.9,28.06.79,11.17,7.56,21.07,17.69,25.84l26.62,12.55-8.64,7.18c-2.51,2.35-5.02,4.7-7.53,7.06-4.83-2.1-9.65-4.21-14.48-6.31l-89.32-44.66c-3.66-1.79-16.98-7.64-34.4-7.64-12.25,0-23.88,2.86-34.55,8.5-29.65,15.66-39.25,46.84-40.26,63.02l-5.37,108.01c-.44,3.64-.88,7.28-1.32,10.92-2.59-.97-5.18-1.94-7.78-2.91l-68.44-30.5c-3.52-1.57-7.26-2.37-11.11-2.37-10.43,0-19.79,5.81-24.43,15.16C42.75,330.64,3.39,413.65.3,453.08c-.25,2.53-1.15,14.44,2.13,28.41,4.95,21.05,19.33,34.06,32.74,44.02,38.87,28.85,156.52,83.62,202.01,99.39,8.1,2.88,21.73,6.49,38.56,5.07,9.87-.83,18.09-3.16,24.22-5.46,1.32-.56,3.27-1.47,5.59-2.7,15.41-8.15,23.48-20.82,30.59-31.99,4.53-7.1,7.23-12.61,11.37-21.08,4.22-8.63,8.12-17.44,11.59-26.18l2.5-6.31,34-15.14c3.68-1.64,6.72-4.27,8.9-7.48,1.03.15,2.05.34,3.1.34,3.73,0,7.42-.98,10.75-2.88l100.73-57.94c5-2.87,8.29-7.99,8.88-13.66,2.81.09,5.47.15,7.84.17,4.28,0,8.49-1.18,12.17-3.4l26.37-15.96,1.75-1.22.43-.35c7.75-6.29,26-24.08,28.27-53.29,2.89-37.17-22.93-60.71-28.13-65.05Z"/>
      <g>
        <path class="cls-3" d="M461.15,70.87l73.08-50.72c8.95-6.21,21.25-.22,21.88,10.66l5.1,88.81,7.39,88.65c.9,10.86-10.44,18.52-20.17,13.62l-79.46-39.98-80.46-37.93c-9.86-4.65-10.82-18.3-1.71-24.28l74.36-48.82Z"/>
        <path class="cls-3" d="M502.05,173.62c-10.56,24.27-21.13,48.54-31.69,72.81-24.2-14.67-48.41-29.34-72.61-44,20.69-17.18,41.38-34.37,62.06-51.55,14.08,7.58,28.15,15.16,42.23,22.74Z"/>
        <path class="cls-1" d="M468.8,252.36l-47.08-30.17-33.5-19.82,2.55-8.5,3.49,2.05c10.57,6.2,21.17,12.41,31.8,18.61,15.56,9.08,31.09,18.1,46.59,27.05l3.18,1.83-7.02,8.94Z"/>
        <path class="cls-2" d="M410.37,219.49c0-2.48-1.4-4.74-3.62-5.85l-126.34-63.17c-2.58-1.26-27.71-13.02-53.53.62-28.56,15.08-31.1,47.04-31.21,48.81-2.59,52.01-5.18,104.02-7.78,156.03,0,.12,0,.24,0,.36l.71,137.31c0,.32-.02.63-.06.94-.65,4.64-3.43,31.18,16.4,51.3,15.37,15.59,38.47,21.42,60.08,15.29.33-.09.66-.21.97-.35,16.9-7.41,33.8-14.82,50.7-22.23,24.22-10.78,48.44-21.56,72.65-32.34,3.3-1.47,3.4-6.18.11-7.7-9.29-4.32-22.66-12.67-32.73-28.13-6.79-10.44-11.91-24.05-12.73-41.66-.11-2.4,1.18-4.66,3.27-5.85,8.28-4.73,30.09-16.3,46.4-16.94,3.77-.15,6.58-3.57,6.24-7.33l-2.59-28.91c-.29-3.19-2.83-5.71-6.02-5.94-9.13-.66-27.67-1.46-41,1.46-3.58.78-7.07-1.47-7.78-5.06-1.44-7.21-2.77-19.88.17-36.52.6-3.37,3.72-5.71,7.12-5.34,11.88,1.29,38.65,4.46,52.27,8.14,4.18,1.13,8.29-1.97,8.29-6.3v-100.62Z"/>
        <path class="cls-2" d="M566.43,314.08c-.21-.15-.41-.3-.62-.45-42.27-27.15-91.32-59.39-133.59-86.54-4.26-2.74-9.89.18-10.07,5.25-.05,1.36-.16,2.46-.1,2.75,2,9.45-.45,152.91-8.8,202.29-5.87,34.67-8.8,52-9.03,52.48-.11.24-.2,1.2-.41,2.35-.69,3.82,3.37,6.7,6.74,4.78l100.74-57.95c.56-.32.58-1.12.01-1.44-2.17-1.22-5.99-4.12-12.71-10.35-2.22-2.06-.65-5.78,2.38-5.58,9.83.63,25.61,1.55,35.47,1.62,1.2,0,2.37-.32,3.4-.95l25.92-15.69c.24-.17.47-.33.71-.5,3.79-3.08,20.16-17.34,22.03-41.4,2.26-29.16-18.71-47.86-22.06-50.67ZM530.02,354.04c-1.92,7.93-17.05,13.96-36.21,13.52-1.67-.04-3.1-1.21-3.52-2.83-1.36-5.34-2.56-12.34-2.51-20.56.05-7.22,1.06-13.48,2.25-18.45.5-2.07,2.65-3.33,4.69-2.72,24.3,7.28,37.41,22.27,35.29,31.04Z"/>
        <path class="cls-1" d="M283.13,626.8c-10.29-1.66-35.46-7.84-47.13-29.22-5.26-9.64-6.09-19.41-6.9-28.85-1.41-16.47.94-29.77,3.14-39.52,4.68-20.68,11.71-40.8,23.51-67.27,9.15-20.54,19.26-41.12,30.04-61.17.34-.66,1.21-2.75.62-5.22-.64-2.7-2.66-4.24-3.49-4.78l-111.87-48.79,6.36-14.58,113.1,49.37c2.11,1.2,9.18,5.84,11.38,15.09,1.76,7.37-.51,13.39-2.02,16.32-10.65,19.83-20.59,40.05-29.58,60.23-11.34,25.46-18.08,44.69-22.52,64.3-2.07,9.16-4.03,20.44-2.81,34.66.75,8.87,1.35,15.88,5.01,22.59,8.3,15.21,27.74,19.85,35.71,21.14l-2.54,15.7Z"/>
        <path class="cls-3" d="M88.84,300.11c-5.03-2.24-10.92-.13-13.37,4.8-13.7,27.65-54.78,113.17-57.55,150.31,0,0-1.17,10.57,1.75,23.01,3.88,16.53,16.44,26.92,26.32,34.25,49.38,36.65,207.46,104.37,208.93,100.23.11-.31-.79-.59-2.98-2.21-29.3-21.63-16.95-81.3-16.26-84.51.29-1.34.98-4.45,2.31-9.14,17.76-62.36,37.81-84.83,51.7-115.99,2.31-5.18-.02-11.25-5.2-13.56l-195.64-87.19Z"/>
        <path class="cls-3" d="M244.06,573.47c1.59,0,3.21-.04,4.84-.12,18.46-.9,34.59-6.75,47.97-14.13,2.35-1.3,4.72-2.57,7.15-3.7,13.31-6.2,26.62-12.4,39.93-18.6-2.44,6.13-6.08,14.8-11.06,24.98-3.99,8.15-6.4,13.08-10.43,19.41-7.02,11.01-13,20.17-24.2,26.09-3.42,1.81-8.37,4.36-15.22,4.5-9.37.2-16.16-4.23-19.22-6.23-15.33-10-18.99-27.86-19.76-32.21Z"/>
      </g>
    </g>
  </g>
</svg>