<?xml version="1.0" encoding="UTF-8"?>
<svg id="Layer_2" data-name="Layer 2" xmlns="http://www.w3.org/2000/svg" viewBox="0 0 434.96 378.1">
  <defs>
    <style>
      .cls-1 {
        fill: #294dff;
      }
    </style>
  </defs>
  <g id="Layer_2-2" data-name="Layer 2">
    <g>
      <path class="cls-1" d="M294.33,373H5.94L0,292.35l99.34-71.88c31.98-22.92,78.96-57.73,78.96-101.03,0-18.96-11.6-31.13-37.92-31.13-39.62,0-45,34.24-41.32,76.41L4.81,147.73C-7.92,54.34,48.68,0,148.58,0s134.71,50.38,134.71,108.39c0,73.02-44.71,117.45-112.07,153.67l-56.89,30.28h101.03c.85-15.28,2.26-30,4.24-44.43h80.09c-5.66,42.73-7.36,82.92-5.38,125.09Z"/>
      <path class="cls-1" d="M323.74,322.35c0-30.85,25.75-55.47,55.75-55.47s55.47,24.62,55.47,55.47-25.75,55.75-55.47,55.75-55.75-24.62-55.75-55.75Z"/>
    </g>
  </g>
</svg>