<?xml version="1.0" encoding="UTF-8"?>
<svg id="Layer_2" data-name="Layer 2" xmlns="http://www.w3.org/2000/svg" viewBox="0 0 631.49 550.59">
  <defs>
    <style>
      .cls-1 {
        fill: #fff;
      }

      .cls-2 {
        stroke-width: 4px;
      }

      .cls-2, .cls-3, .cls-4, .cls-5 {
        stroke-linecap: round;
        stroke-linejoin: round;
      }

      .cls-2, .cls-5 {
        fill: none;
        stroke: #231f20;
      }

      .cls-3 {
        stroke: #ededed;
      }

      .cls-3, .cls-4 {
        stroke-width: 8px;
      }

      .cls-3, .cls-6 {
        fill: #ededed;
      }

      .cls-4 {
        stroke: #fff;
      }

      .cls-4, .cls-7 {
        fill: #1130fe;
      }

      .cls-8 {
        fill: #231f20;
      }

      .cls-9 {
        fill: #294dff;
      }

      .cls-6 {
        stroke: #294dff;
        stroke-miterlimit: 10;
        stroke-width: 3px;
      }

      .cls-5 {
        stroke-width: 15px;
      }
    </style>
  </defs>
  <g id="Layer_2-2" data-name="Layer 2">
    <g>
      <g>
        <path class="cls-6" d="M466.72,1.5H164.77c-4.39,0-8.45,2.34-10.65,6.15L3.15,269.14c-2.2,3.81-2.2,8.49,0,12.3l150.97,261.49c2.2,3.81,6.26,6.15,10.65,6.15h301.95c4.39,0,8.45-2.34,10.65-6.15l150.97-261.49c2.2-3.81,2.2-8.49,0-12.3L477.37,7.65c-2.2-3.81-6.26-6.15-10.65-6.15Z"/>
        <path class="cls-9" d="M457.08,18.2H174.41c-4.39,0-8.45,2.34-10.65,6.15L22.43,269.14c-2.2,3.81-2.2,8.49,0,12.3l141.33,244.8c2.2,3.81,6.26,6.15,10.65,6.15h282.67c4.39,0,8.45-2.34,10.65-6.15l141.33-244.8c2.2-3.81,2.2-8.49,0-12.3L467.73,24.35c-2.2-3.81-6.26-6.15-10.65-6.15Z"/>
      </g>
      <g>
        <path class="cls-3" d="M143.35,452.46l43.36-76.34-34.56-46.97c-5.55-7.54-6.54-17.5-2.59-25.98l45.73-98.26c-18-9.79-29.85-29-29.85-49.99,0-31.32,25.48-56.81,56.81-56.81,27.06,0,49.82,18.88,55.46,44.45h74.01c5.65-25.57,28.41-44.45,55.46-44.45,31.32,0,56.81,25.48,56.81,56.81,0,20.37-10.92,38.93-28.04,48.99l46.19,99.26c3.95,8.49,2.96,18.44-2.59,25.98l-34.09,46.33,42.69,76.98H143.35Z"/>
        <g>
          <path class="cls-7" d="M226.39,412.94l-65.79-89.4c-3.38-4.59-3.99-10.67-1.58-15.84l67.85-145.8c2.56-5.5,8.08-9.02,14.15-9.02h150.44c6.07,0,11.59,3.52,14.15,9.02l67.85,145.8c2.41,5.17,1.8,11.24-1.58,15.84l-65.79,89.4c-2.94,4-7.61,6.36-12.57,6.36h-154.56c-4.96,0-9.63-2.36-12.57-6.36Z"/>
          <path class="cls-1" d="M233.51,221.15c-2.86,0-5.17,2.31-5.17,5.17v31.09h.05c1.04,18.21,17.8,32.68,38.33,32.68s37.3-14.48,38.33-32.68h.05v-31.09c0-2.86-2.31-5.17-5.17-5.17h-66.43Z"/>
          <path class="cls-8" d="M323.68,332.46c-.96.53-2.79,1.35-5.18,1.32-2.27-.02-4.01-.8-4.96-1.32-4.11-3.15-9.16-7.68-14.21-14-5.77-7.22-9.61-14.37-12.12-19.91-.28-.57-1.08-2.36-.65-4.4.55-2.66,2.94-4.7,5.88-4.72,7.44-.91,15.79-1.54,24.92-1.6,10.13-.06,19.34.6,27.43,1.6,2.82.11,5.17,2.04,5.88,4.72.56,2.12-.09,4.02-.34,4.66-2.01,5.11-5.47,12.4-11.29,19.66-5.57,6.96-11.26,11.34-15.35,14Z"/>
          <line class="cls-4" x1="300" y1="252.09" x2="335.92" y2="252.09"/>
          <circle class="cls-7" cx="222.64" cy="155.24" r="46.81"/>
          <path class="cls-8" d="M252.33,153.74c.03,1.18-.05,2.22-.16,3.08-13.12,8.29-26.25,16.59-39.37,24.88-11.98-4.84-19.83-16.01-19.85-27.96-.02-15.32,12.83-29.69,29.69-29.69,18.91,0,29.4,18.09,29.69,29.69Z"/>
          <circle class="cls-7" cx="407.58" cy="155.24" r="46.81"/>
          <path class="cls-7" d="M471.56,442.77H160.92c14.73-25.93,29.45-51.85,44.18-77.77,74.4-.08,148.8-.15,223.2-.23,14.42,26,28.84,52,43.26,78Z"/>
          <g>
            <polyline class="cls-2" points="300.33 364.77 318.65 348.6 336.24 364.77"/>
            <line class="cls-2" x1="318.54" y1="329.53" x2="318.65" y2="348.6"/>
          </g>
          <g>
            <path class="cls-7" d="M324.34,300.55c-1.11,2.05.8,4.81,4.27,6.17s7.19.79,8.3-1.26-.8-4.81-4.27-6.17c-3.47-1.36-7.19-.79-8.3,1.26Z"/>
            <path class="cls-7" d="M324.03,301.84c-.07.67-.55,6.46,3.88,10.15,5.01,4.17,11.88,1.95,13.39,1.47,3.19-1.03,5.74-2.93,5.52-3.39-.41-.89-10.46,4.4-14.55.91-1.2-1.02-1.57-2.54-1.69-3.7"/>
          </g>
          <g>
            <path class="cls-7" d="M313.93,300.55c1.11,2.05-.8,4.81-4.27,6.17-3.47,1.36-7.19.79-8.3-1.26-1.11-2.05.8-4.81,4.27-6.17,3.47-1.36,7.19-.79,8.3,1.26Z"/>
            <path class="cls-7" d="M314.24,301.84c.07.67.55,6.46-3.88,10.15-5.01,4.17-11.88,1.95-13.39,1.47-3.19-1.03-5.74-2.93-5.52-3.39.41-.89,10.46,4.4,14.55.91,1.2-1.02,1.57-2.54,1.69-3.7"/>
          </g>
          <path class="cls-8" d="M377.89,153.74c-.03,1.18.05,2.22.16,3.08,13.12,8.29,26.25,16.59,39.37,24.88,11.98-4.84,19.83-16.01,19.85-27.96.02-15.32-12.83-29.69-29.69-29.69-18.91,0-29.4,18.09-29.69,29.69Z"/>
          <path d="M268.05,251.01c3.3,1.53,5.55,2.79,6.73,3.77,2.83,2.36,3.89,5.5,3.19,9.43-.67,3.38-2.29,6-4.87,7.87-2.58,1.87-5.69,2.9-9.33,3.09l-.92,5.17h-3.83l.95-5.34c-3.03-.35-5.56-1.32-7.59-2.9-2.03-1.58-3.43-3.65-4.22-6.2l6.14-3.13c1.03,3.3,3.3,5.21,6.82,5.72l2.18-12.26c-.71-.31-1.31-.59-1.81-.82-.49-.24-1.07-.53-1.74-.88-.67-.35-1.22-.69-1.66-1-.44-.31-.94-.71-1.51-1.18-.57-.47-1-.92-1.27-1.35-.28-.43-.61-.94-1.01-1.53s-.62-1.19-.68-1.79c-.06-.61-.14-1.3-.24-2.09s-.03-1.59.21-2.41c.67-3.45,2.34-6.1,5.02-7.94,2.68-1.84,5.65-2.78,8.92-2.82l.92-5.17h3.83l-.98,5.52c2.2.51,4.09,1.44,5.66,2.78s2.77,3.02,3.6,5.02l-6.02,3.13c-1.14-2.24-2.62-3.68-4.42-4.31l-2.06,11.62ZM260.48,243.76c-.27,1.34-.06,2.43.65,3.28s1.83,1.64,3.36,2.39l1.86-10.46c-1.46.12-2.75.6-3.85,1.45-1.11.85-1.78,1.96-2.02,3.34ZM271.03,263.47c.31-1.34.1-2.43-.65-3.28-.75-.85-1.93-1.64-3.54-2.39l-1.91,10.75c1.67-.27,3.03-.87,4.09-1.77,1.06-.91,1.73-2.01,2.01-3.31Z"/>
          <path class="cls-1" d="M340.58,221.15c-2.86,0-5.17,2.31-5.17,5.17v31.09h.05c1.04,18.21,17.8,32.68,38.33,32.68s37.3-14.48,38.33-32.68h.05v-31.09c0-2.86-2.31-5.17-5.17-5.17h-66.43Z"/>
          <path d="M375.12,251.01c3.3,1.53,5.55,2.79,6.73,3.77,2.83,2.36,3.89,5.5,3.19,9.43-.67,3.38-2.29,6-4.87,7.87-2.58,1.87-5.69,2.9-9.33,3.09l-.92,5.17h-3.83l.95-5.34c-3.03-.35-5.56-1.32-7.59-2.9-2.03-1.58-3.43-3.65-4.22-6.2l6.14-3.13c1.03,3.3,3.3,5.21,6.82,5.72l2.18-12.26c-.71-.31-1.31-.59-1.81-.82-.49-.24-1.07-.53-1.74-.88-.67-.35-1.22-.69-1.66-1-.44-.31-.94-.71-1.51-1.18-.57-.47-1-.92-1.27-1.35-.28-.43-.61-.94-1.01-1.53s-.62-1.19-.68-1.79c-.06-.61-.14-1.3-.24-2.09s-.03-1.59.21-2.41c.67-3.45,2.34-6.1,5.02-7.94,2.68-1.84,5.65-2.78,8.92-2.82l.92-5.17h3.83l-.98,5.52c2.2.51,4.09,1.44,5.66,2.78s2.77,3.02,3.6,5.02l-6.02,3.13c-1.14-2.24-2.62-3.68-4.42-4.31l-2.06,11.62ZM367.55,243.76c-.27,1.34-.06,2.43.65,3.28s1.83,1.64,3.36,2.39l1.86-10.46c-1.46.12-2.75.6-3.85,1.45-1.11.85-1.78,1.96-2.02,3.34ZM378.1,263.47c.31-1.34.1-2.43-.65-3.28-.75-.85-1.93-1.64-3.54-2.39l-1.91,10.75c1.67-.27,3.03-.87,4.09-1.77,1.06-.91,1.73-2.01,2.01-3.31Z"/>
        </g>
        <path class="cls-5" d="M285.47,206.79c-5.33-.05-10.7-.08-16.1-.09-7.47-.01-14.87.02-22.2.09"/>
        <path class="cls-5" d="M393.02,206.88c-5.33-.05-10.7-.08-16.1-.09-7.47-.01-14.87.02-22.2.09"/>
      </g>
    </g>
  </g>
</svg>