<?xml version="1.0" encoding="UTF-8"?>
<svg id="Layer_2" data-name="Layer 2" xmlns="http://www.w3.org/2000/svg" viewBox="0 0 352.8 362.34">
  <defs>
    <style>
      .cls-1 {
        fill: #fff;
      }

      .cls-2 {
        stroke-width: 4px;
      }

      .cls-2, .cls-3, .cls-4, .cls-5 {
        stroke-linecap: round;
        stroke-linejoin: round;
      }

      .cls-2, .cls-5 {
        fill: none;
        stroke: #231f20;
      }

      .cls-3 {
        fill: #ededed;
        stroke: #ededed;
      }

      .cls-3, .cls-4 {
        stroke-width: 8px;
      }

      .cls-4 {
        stroke: #fff;
      }

      .cls-4, .cls-6 {
        fill: #1130fe;
      }

      .cls-7 {
        fill: #231f20;
      }

      .cls-5 {
        stroke-width: 15px;
      }
    </style>
  </defs>
  <g id="Layer_2-2" data-name="Layer 2">
    <g>
      <path class="cls-3" d="M4,358.34l43.36-76.34-34.56-46.97c-5.55-7.54-6.54-17.5-2.59-25.98l45.73-98.26c-18-9.79-29.85-29-29.85-49.99,0-31.32,25.48-56.81,56.81-56.81,27.06,0,49.82,18.88,55.46,44.45h74.01c5.65-25.57,28.41-44.45,55.46-44.45,31.32,0,56.81,25.48,56.81,56.81,0,20.37-10.92,38.93-28.04,48.99l46.19,99.26c3.95,8.49,2.96,18.44-2.59,25.98l-34.09,46.33,42.69,76.98H4Z"/>
      <g>
        <path class="cls-6" d="M86.55,318.82L20.76,229.41c-3.38-4.59-3.99-10.67-1.58-15.84L87.03,67.78c2.56-5.5,8.08-9.02,14.15-9.02h150.44c6.07,0,11.59,3.52,14.15,9.02l67.85,145.8c2.41,5.17,1.8,11.24-1.58,15.84l-65.79,89.4c-2.94,4-7.61,6.36-12.57,6.36H99.12c-4.96,0-9.63-2.36-12.57-6.36Z"/>
        <path class="cls-1" d="M93.67,127.03c-2.86,0-5.17,2.31-5.17,5.17v31.09h.05c1.04,18.21,17.8,32.68,38.33,32.68s37.3-14.48,38.33-32.68h.05v-31.09c0-2.86-2.31-5.17-5.17-5.17h-66.43Z"/>
        <path class="cls-7" d="M183.83,238.34c-.96.53-2.79,1.35-5.18,1.32-2.27-.02-4.01-.8-4.96-1.32-4.11-3.15-9.16-7.68-14.21-14-5.77-7.22-9.61-14.37-12.12-19.91-.28-.57-1.08-2.36-.65-4.4.55-2.66,2.94-4.7,5.88-4.72,7.44-.91,15.79-1.54,24.92-1.6,10.13-.06,19.34.6,27.43,1.6,2.82.11,5.17,2.04,5.88,4.72.56,2.12-.09,4.02-.34,4.66-2.01,5.11-5.47,12.4-11.29,19.66-5.57,6.96-11.26,11.34-15.35,14Z"/>
        <line class="cls-4" x1="160.16" y1="157.96" x2="196.08" y2="157.96"/>
        <circle class="cls-6" cx="82.8" cy="61.11" r="46.81"/>
        <path class="cls-7" d="M112.48,59.62c.03,1.18-.05,2.22-.16,3.08-13.12,8.29-26.25,16.59-39.37,24.88-11.98-4.84-19.83-16.01-19.85-27.96-.02-15.32,12.83-29.69,29.69-29.69,18.91,0,29.4,18.09,29.69,29.69Z"/>
        <circle class="cls-6" cx="267.74" cy="61.11" r="46.81"/>
        <path class="cls-6" d="M331.72,348.65H21.08c14.73-25.93,29.45-51.85,44.18-77.77,74.4-.08,148.8-.15,223.2-.23,14.42,26,28.84,52,43.26,78Z"/>
        <g>
          <path class="cls-2" d="M160.49,270.65l18.33-16.17c1.72,8.96,9.07,15.57,17.59,16.17,7.15.5,14.12-3.31,17.94-9.75"/>
          <line class="cls-2" x1="178.7" y1="235.41" x2="178.81" y2="254.48"/>
        </g>
        <g>
          <path class="cls-6" d="M184.5,206.43c-1.11,2.05.8,4.81,4.27,6.17s7.19.79,8.3-1.26-.8-4.81-4.27-6.17c-3.47-1.36-7.19-.79-8.3,1.26Z"/>
          <path class="cls-6" d="M184.19,207.72c-.07.67-.55,6.46,3.88,10.15,5.01,4.17,11.88,1.95,13.39,1.47,3.19-1.03,5.74-2.93,5.52-3.39-.41-.89-10.46,4.4-14.55.91-1.2-1.02-1.57-2.54-1.69-3.7"/>
        </g>
        <g>
          <path class="cls-6" d="M174.09,206.43c1.11,2.05-.8,4.81-4.27,6.17-3.47,1.36-7.19.79-8.3-1.26-1.11-2.05.8-4.81,4.27-6.17,3.47-1.36,7.19-.79,8.3,1.26Z"/>
          <path class="cls-6" d="M174.4,207.72c.07.67.55,6.46-3.88,10.15-5.01,4.17-11.88,1.95-13.39,1.47-3.19-1.03-5.74-2.93-5.52-3.39.41-.89,10.46,4.4,14.55.91,1.2-1.02,1.57-2.54,1.69-3.7"/>
        </g>
        <path class="cls-7" d="M238.05,59.62c-.03,1.18.05,2.22.16,3.08,13.12,8.29,26.25,16.59,39.37,24.88,11.98-4.84,19.83-16.01,19.85-27.96.02-15.32-12.83-29.69-29.69-29.69-18.91,0-29.4,18.09-29.69,29.69Z"/>
        <path class="cls-1" d="M200.74,127.03c-2.86,0-5.17,2.31-5.17,5.17v31.09h.05c1.04,18.21,17.8,32.68,38.33,32.68s37.3-14.48,38.33-32.68h.05v-31.09c0-2.86-2.31-5.17-5.17-5.17h-66.43Z"/>
      </g>
      <path class="cls-5" d="M251.83,113.24c-5.33-.05-10.7-.08-16.1-.09-7.47-.01-14.87.02-22.2.09"/>
      <path class="cls-5" d="M146.03,111.96c-.9-.77-14.39-11.88-28.54-6.73-4.54,1.65-7.73,4.46-9.76,6.73"/>
    </g>
  </g>
</svg>