<?xml version="1.0" encoding="UTF-8"?>
<svg id="Layer_2" data-name="Layer 2" xmlns="http://www.w3.org/2000/svg" viewBox="0 0 366.53 357.9">
  <defs>
    <style>
      .cls-1 {
        stroke: #294dff;
        stroke-miterlimit: 10;
        stroke-width: 5px;
      }

      .cls-1, .cls-2 {
        fill: #ededed;
      }

      .cls-3 {
        fill: #1130fe;
      }

      .cls-4 {
        fill: #161616;
      }
    </style>
  </defs>
  <g id="Layer_2-2" data-name="Layer 2">
    <g>
      <rect class="cls-1" x="2.5" y="42.89" width="361.53" height="312.51" rx="20.43" ry="20.43"/>
      <path class="cls-4" d="M313.4,186.38c-86.98-1.79-173.96-3.57-260.94-5.36-12.56-48.7-12.54-88.09-10.21-114.68,1.99-22.78,5.06-29.07,6.42-31.62C68.26-1.97,127.56-.77,186.25.42c59.48,1.21,113.47,2.3,133.28,38.59,5.22,9.56,6.1,18.29,7.66,35.37,4.04,44.27-4.01,82.83-13.79,112Z"/>
      <path class="cls-3" d="M299.04,221.79c0,17.38-5.48,34.18-15.54,47.1-15.88,20.42-43.8,46.92-84.37,51.97-42.38,5.28-84.51-14.58-113.43-51.92-9.99-12.9-15.42-29.67-15.42-46.99v-118.58h228.77v118.41Z"/>
      <path class="cls-2" d="M168.8,191.45c0,5.4-2.09,10.61-5.9,14.44-4.65,4.68-12.04,9.98-22.29,11.08-11.29,1.22-22.52-3.04-30.61-11.19-3.75-3.78-5.75-8.96-5.75-14.29v-24.26c0-1.85,1.5-3.36,3.36-3.36h57.85c1.85,0,3.36,1.5,3.36,3.36v24.21Z"/>
      <path class="cls-2" d="M265.03,191.45c0,5.4-2.09,10.61-5.9,14.44-4.65,4.68-12.04,9.98-22.29,11.08-11.29,1.22-22.52-3.04-30.61-11.19-3.75-3.78-5.75-8.96-5.75-14.29v-24.26c0-1.85,1.5-3.36,3.36-3.36h57.85c1.85,0,3.36,1.5,3.36,3.36v24.21Z"/>
      <ellipse class="cls-4" cx="137.82" cy="191.83" rx="11.4" ry="9.36"/>
      <ellipse class="cls-4" cx="232.46" cy="191.83" rx="11.4" ry="9.36"/>
      <rect class="cls-4" x="103.95" y="142.3" width="64.25" height="14.51" rx="1.7" ry="1.7"/>
      <rect class="cls-4" x="201.05" y="142.3" width="64.94" height="14.51" rx="1.7" ry="1.7"/>
      <g>
        <ellipse class="cls-4" cx="171.01" cy="237.36" rx="3.06" ry="2.04"/>
        <ellipse class="cls-4" cx="198.59" cy="237.62" rx="3.06" ry="2.04"/>
        <rect class="cls-4" x="156.03" y="267.74" width="59.23" height="4.09"/>
      </g>
      <rect class="cls-3" x="163.72" y="304.34" width="44.06" height="49.02"/>
      <path class="cls-3" d="M72.97,184.85c-1.92-2.24-8.44-9.25-19.4-11.23-2.81-.51-13.31-2.41-20.43,3.06-11.95,9.18-11.18,36.7,4.09,50.04,13.03,11.39,31.11,7.61,33.7,7.03"/>
    </g>
  </g>
</svg>