<?xml version="1.0" encoding="UTF-8"?>
<svg id="Layer_2" data-name="Layer 2" xmlns="http://www.w3.org/2000/svg" viewBox="0 0 430.72 373">
  <defs>
    <style>
      .cls-1 {
        fill: #294dff;
      }
    </style>
  </defs>
  <g id="Layer_2-2" data-name="Layer 2">
    <g>
      <path class="cls-1" d="M292.63,248.76c0,69.62-48.68,124.24-146.88,124.24C57.45,373,3.4,329.14,0,238.86l95.94-14.15c.85,45.56,24.62,64.81,52.64,64.81,25.75,0,42.17-16.13,42.17-43.02,0-24.62-16.98-39.05-43.87-39.05-10.47,0-21.79,1.7-33.11,5.94l-23.77-47.26,86.88-86.03h-84.34c-.85,20.94-1.98,39.62-4.24,59.43H11.32C16.42,88.3,18.11,49.53,15.85,0h261.78v83.2l-75.28,67.36c58.3,9.06,90.28,48.11,90.28,98.2Z"/>
      <path class="cls-1" d="M319.49,317.25c0-30.85,25.75-55.47,55.75-55.47s55.47,24.62,55.47,55.47-25.75,55.75-55.47,55.75-55.75-24.62-55.75-55.75Z"/>
    </g>
  </g>
</svg>