<?xml version="1.0" encoding="UTF-8"?>
<svg id="Layer_2" data-name="Layer 2" xmlns="http://www.w3.org/2000/svg" viewBox="0 0 475.53 876.72">
  <defs>
    <style>
      .cls-1 {
        fill: #fff;
      }

      .cls-2 {
        stroke-width: 4px;
      }

      .cls-2, .cls-3, .cls-4, .cls-5 {
        stroke-linecap: round;
        stroke-linejoin: round;
      }

      .cls-2, .cls-5 {
        fill: none;
        stroke: #231f20;
      }

      .cls-3 {
        fill: #ededed;
        stroke: #ededed;
      }

      .cls-3, .cls-4 {
        stroke-width: 8px;
      }

      .cls-4 {
        stroke: #fff;
      }

      .cls-4, .cls-6 {
        fill: #1130fe;
      }

      .cls-7 {
        fill: #231f20;
      }

      .cls-5 {
        stroke-width: 15px;
      }
    </style>
  </defs>
  <g id="Layer_1-2" data-name="Layer 1">
    <g>
      <g>
        <path class="cls-3" d="M465.4,305.47l-67.37-36.82-40.57,30.89c-6.51,4.96-15.2,5.97-22.68,2.64l-86.56-38.57c-8.3,15.88-24.93,26.51-43.28,26.81-27.39.45-50.03-21.47-50.48-48.86-.39-23.66,15.79-43.83,38.07-49.13l-1.06-64.71c-22.44-4.57-39.27-24.2-39.66-47.86-.45-27.39,21.47-50.03,48.86-50.48,17.81-.29,34.19,8.99,43.23,23.82l86.12-41.81c7.36-3.57,16.08-2.85,22.75,1.89l40.99,29.14L460.47,4l4.94,301.47Z"/>
        <g>
          <path class="cls-6" d="M428.87,234.03l-75.51,57.5c-4.54,3.46-10.6,4.16-15.81,1.84l-126.24-56.25c-5.54-2.47-9.15-7.93-9.25-14l-2.11-129.04c-.1-6.07,3.33-11.65,8.79-14.3l124.33-60.36c5.13-2.49,11.21-1.98,15.86,1.32l77.35,55c4.04,2.88,6.48,7.5,6.56,12.47l2.18,133.16c.08,4.96-2.2,9.67-6.15,12.67Z"/>
          <path class="cls-1" d="M261.87,229.94c.04,2.5,2.1,4.49,4.59,4.45l27.18-.45v-.04c15.9-1.17,28.32-16.03,28.02-33.98s-13.19-32.4-29.12-33.05v-.04s-27.18.45-27.18.45c-2.5.04-4.49,2.1-4.45,4.59l.95,58.08Z"/>
          <path class="cls-7" d="M357.9,149.52c.47.83,1.22,2.42,1.23,4.51.01,1.98-.65,3.52-1.09,4.36-2.7,3.64-6.58,8.12-12.03,12.62-6.23,5.15-12.42,8.61-17.24,10.88-.5.26-2.05.98-3.84.64-2.33-.44-4.15-2.5-4.21-5.07-.9-6.49-1.58-13.79-1.75-21.76-.2-8.85.25-16.91,1-24.01.06-2.47,1.71-4.55,4.05-5.21,1.84-.52,3.51.02,4.08.23,4.5,1.68,10.92,4.61,17.35,9.59,6.16,4.77,10.08,9.68,12.46,13.22Z"/>
          <line class="cls-4" x1="287.97" y1="171.37" x2="287.45" y2="139.97"/>
          <circle class="cls-6" cx="204.4" cy="240.39" r="40.93"/>
          <path class="cls-7" d="M202.66,214.46c1.03-.04,1.94,0,2.7.09,7.44,11.36,14.88,22.71,22.32,34.07-4.06,10.54-13.71,17.57-24.16,17.75-13.39.24-26.14-10.79-26.38-25.53-.27-16.54,15.4-25.96,25.53-26.38Z"/>
          <circle class="cls-6" cx="201.75" cy="78.7" r="40.93"/>
          <path class="cls-6" d="M452.23,18.64c1.48,90.53,2.97,181.06,4.45,271.6-22.88-12.5-45.75-25.01-68.63-37.51-1.13-65.05-2.26-130.1-3.4-195.14,22.53-12.98,45.05-25.96,67.58-38.94Z"/>
          <g>
            <polyline class="cls-2" points="386.48 169.47 372.08 153.68 385.97 138.07"/>
            <line class="cls-2" x1="355.42" y1="154.05" x2="372.08" y2="153.68"/>
          </g>
          <g>
            <path class="cls-6" d="M329.99,149.39c1.81.94,4.19-.77,5.33-3.83,1.14-3.05.59-6.29-1.22-7.24s-4.19.77-5.33,3.83c-1.14,3.05-.59,6.29,1.22,7.24Z"/>
            <path class="cls-6" d="M331.13,149.64c.59.05,5.66.39,8.81-3.54,3.57-4.44,1.54-10.42,1.09-11.73-.94-2.78-2.64-4.97-3.04-4.78-.77.37,4,9.08,1.01,12.71-.88,1.06-2.19,1.41-3.21,1.53"/>
          </g>
          <g>
            <path class="cls-6" d="M330.14,158.5c1.78-1,4.22.63,5.45,3.65,1.23,3.02.8,6.27-.98,7.27s-4.22-.63-5.45-3.65c-1.23-3.02-.8-6.27.98-7.27Z"/>
            <path class="cls-6" d="M331.27,158.21c.59-.07,5.64-.57,8.93,3.25,3.71,4.32,1.88,10.36,1.48,11.68-.85,2.81-2.48,5.06-2.89,4.88-.78-.34,3.7-9.21.59-12.73-.91-1.04-2.24-1.34-3.26-1.43"/>
          </g>
          <path class="cls-7" d="M200.87,104.68c1.03,0,1.94-.07,2.69-.18,7.06-11.59,14.13-23.19,21.19-34.78-4.4-10.4-14.28-17.11-24.73-16.95-13.39.2-25.77,11.65-25.53,26.38.27,16.54,16.24,25.44,26.38,25.53Z"/>
          <path d="M287.48,199.32c1.29-2.91,2.36-4.89,3.2-5.94,2.02-2.51,4.75-3.48,8.2-2.92,2.96.54,5.28,1.92,6.95,4.14,1.67,2.23,2.61,4.93,2.84,8.12l4.53.73.05,3.35-4.69-.75c-.26,2.66-1.07,4.88-2.43,6.68-1.35,1.79-3.14,3.05-5.36,3.78l-2.82-5.32c2.87-.95,4.51-2.96,4.91-6.05l-10.75-1.73c-.26.63-.49,1.16-.69,1.59-.2.43-.45.95-.75,1.54-.3.59-.58,1.08-.85,1.46-.27.39-.6.83-1.01,1.34-.4.51-.79.88-1.16,1.13-.37.25-.81.55-1.32.9s-1.03.56-1.56.62c-.53.06-1.14.14-1.82.24s-1.39.05-2.11-.15c-3.03-.54-5.36-1.96-7.01-4.27-1.65-2.31-2.51-4.9-2.6-7.76l-4.53-.73-.05-3.35,4.84.78c.41-1.93,1.2-3.6,2.35-4.99,1.16-1.39,2.6-2.47,4.34-3.22l2.82,5.22c-1.94,1.03-3.18,2.34-3.7,3.93l10.19,1.64ZM281.26,206.04c1.18.22,2.13.02,2.86-.61s1.41-1.62,2.04-2.97l-9.17-1.47c.12,1.28.56,2.39,1.32,3.35.76.96,1.74,1.53,2.95,1.71ZM298.34,196.53c-1.17-.25-2.13-.05-2.86.61-.73.67-1.41,1.71-2.04,3.13l9.42,1.51c-.26-1.45-.8-2.64-1.61-3.55-.81-.92-1.78-1.48-2.92-1.71Z"/>
          <path class="cls-1" d="M260.34,136.33c.04,2.5,2.1,4.49,4.59,4.45l27.18-.45v-.04c15.9-1.17,28.32-16.03,28.02-33.98s-13.19-32.4-29.12-33.05v-.04s-27.18.45-27.18.45c-2.5.04-4.49,2.1-4.45,4.59l.95,58.08Z"/>
          <path d="M285.95,105.71c1.29-2.91,2.36-4.89,3.2-5.94,2.02-2.51,4.75-3.48,8.2-2.92,2.96.54,5.28,1.92,6.95,4.14,1.67,2.23,2.61,4.93,2.84,8.12l4.53.73.05,3.35-4.69-.75c-.26,2.66-1.07,4.88-2.43,6.68-1.35,1.79-3.14,3.05-5.36,3.78l-2.82-5.32c2.87-.95,4.51-2.96,4.91-6.05l-10.75-1.73c-.26.63-.49,1.16-.69,1.59-.2.43-.45.95-.75,1.54-.3.59-.58,1.08-.85,1.46-.27.39-.6.83-1.01,1.34-.4.51-.79.88-1.16,1.13-.37.25-.81.55-1.32.9s-1.03.56-1.56.62c-.53.06-1.14.14-1.82.24s-1.39.05-2.11-.15c-3.03-.54-5.36-1.96-7.01-4.27-1.65-2.31-2.51-4.9-2.6-7.76l-4.53-.73-.05-3.35,4.84.78c.41-1.93,1.2-3.6,2.35-4.99s2.6-2.47,4.34-3.22l2.82,5.22c-1.94,1.03-3.18,2.34-3.7,3.93l10.19,1.64ZM279.72,112.43c1.18.22,2.13.02,2.86-.61s1.41-1.62,2.04-2.97l-9.17-1.47c.12,1.28.56,2.39,1.32,3.35.76.96,1.74,1.53,2.95,1.71ZM296.8,102.92c-1.17-.25-2.13-.05-2.86.61-.73.67-1.41,1.71-2.04,3.13l9.42,1.51c-.26-1.45-.8-2.64-1.61-3.55-.81-.92-1.78-1.48-2.92-1.71Z"/>
        </g>
        <path class="cls-5" d="M248.57,184.72c.03,4.66.08,9.35.15,14.07.1,6.53.23,13,.4,19.41"/>
        <path class="cls-5" d="M247.11,90.69c.03,4.66.08,9.35.15,14.07.1,6.53.23,13,.4,19.41"/>
      </g>
      <g>
        <path class="cls-3" d="M4,297.94l67.37,36.82,40.57-30.89c6.51-4.96,15.2-5.97,22.68-2.64l86.56,38.57c8.3-15.88,24.93-26.51,43.28-26.81,27.39-.45,50.03,21.47,50.48,48.86.39,23.66-15.79,43.83-38.07,49.13l1.06,64.71c22.44,4.57,39.27,24.2,39.66,47.86.45,27.39-21.47,50.03-48.86,50.48-17.81.29-34.19-8.99-43.23-23.82l-86.12,41.81c-7.36,3.57-16.08,2.85-22.75-1.89l-40.99-29.14-66.69,38.43-4.94-301.47Z"/>
        <g>
          <path class="cls-6" d="M40.54,369.38l75.51-57.5c4.54-3.46,10.6-4.16,15.81-1.84l126.24,56.25c5.54,2.47,9.15,7.93,9.25,14l2.11,129.04c.1,6.07-3.33,11.65-8.79,14.3l-124.33,60.36c-5.13,2.49-11.21,1.98-15.86-1.32l-77.35-55c-4.04-2.88-6.48-7.5-6.56-12.47l-2.18-133.16c-.08-4.96,2.2-9.67,6.15-12.67Z"/>
          <path class="cls-1" d="M207.53,373.46c-.04-2.5-2.1-4.49-4.59-4.45l-27.18.45v.04c-15.9,1.17-28.32,16.03-28.02,33.98s13.19,32.4,29.12,33.05v.04s27.18-.45,27.18-.45c2.5-.04,4.49-2.1,4.45-4.59l-.95-58.08Z"/>
          <path class="cls-7" d="M111.5,453.89c-.47-.83-1.22-2.42-1.23-4.51-.01-1.98.65-3.52,1.09-4.36,2.7-3.64,6.58-8.12,12.03-12.62,6.23-5.15,12.42-8.61,17.24-10.88.5-.26,2.05-.98,3.84-.64,2.33.44,4.15,2.5,4.21,5.07.9,6.49,1.58,13.79,1.75,21.76.2,8.85-.25,16.91-1,24.01-.06,2.47-1.71,4.55-4.05,5.21-1.84.52-3.51-.02-4.08-.23-4.5-1.68-10.92-4.61-17.35-9.59-6.16-4.77-10.08-9.68-12.46-13.22Z"/>
          <line class="cls-4" x1="181.44" y1="432.04" x2="181.95" y2="463.44"/>
          <circle class="cls-6" cx="265.01" cy="363.01" r="40.93"/>
          <path class="cls-7" d="M266.74,388.95c-1.03.04-1.94,0-2.7-.09-7.44-11.36-14.88-22.71-22.32-34.07,4.06-10.54,13.71-17.57,24.16-17.75,13.39-.24,26.14,10.79,26.38,25.53.27,16.54-15.4,25.96-25.53,26.38Z"/>
          <circle class="cls-6" cx="267.66" cy="524.71" r="40.93"/>
          <path class="cls-6" d="M17.18,584.77c-1.48-90.53-2.97-181.06-4.45-271.6,22.88,12.5,45.75,25.01,68.63,37.51,1.13,65.05,2.26,130.1,3.4,195.14-22.53,12.98-45.05,25.96-67.58,38.94Z"/>
          <g>
            <polyline class="cls-2" points="82.92 433.94 97.32 449.73 83.44 465.34"/>
            <line class="cls-2" x1="113.99" y1="449.36" x2="97.32" y2="449.73"/>
          </g>
          <g>
            <path class="cls-6" d="M139.41,454.02c-1.81-.94-4.19.77-5.33,3.83-1.14,3.05-.59,6.29,1.22,7.24s4.19-.77,5.33-3.83c1.14-3.05.59-6.29-1.22-7.24Z"/>
            <path class="cls-6" d="M138.28,453.76c-.59-.05-5.66-.39-8.81,3.54-3.57,4.44-1.54,10.42-1.09,11.73.94,2.78,2.64,4.97,3.04,4.78.77-.37-4-9.08-1.01-12.71.88-1.06,2.19-1.41,3.21-1.53"/>
          </g>
          <g>
            <path class="cls-6" d="M139.26,444.91c-1.78,1-4.22-.63-5.45-3.65-1.23-3.02-.8-6.27.98-7.27s4.22.63,5.45,3.65c1.23,3.02.8,6.27-.98,7.27Z"/>
            <path class="cls-6" d="M138.14,445.2c-.59.07-5.64.57-8.93-3.25-3.71-4.32-1.88-10.36-1.48-11.68.85-2.81,2.48-5.06,2.89-4.88.78.34-3.7,9.21-.59,12.73.91,1.04,2.24,1.34,3.26,1.43"/>
          </g>
          <path class="cls-7" d="M268.54,498.73c-1.03,0-1.94.07-2.69.18-7.06,11.59-14.13,23.19-21.19,34.78,4.4,10.4,14.28,17.11,24.73,16.95,13.39-.2,25.77-11.65,25.53-26.38-.27-16.54-16.24-25.44-26.38-25.53Z"/>
          <path d="M181.93,404.09c-1.29,2.91-2.36,4.89-3.2,5.94-2.02,2.51-4.75,3.48-8.2,2.92-2.96-.54-5.28-1.92-6.95-4.14-1.67-2.23-2.61-4.93-2.84-8.12l-4.53-.73-.05-3.35,4.69.75c.26-2.66,1.07-4.88,2.43-6.68,1.35-1.79,3.14-3.05,5.36-3.78l2.82,5.32c-2.87.95-4.51,2.96-4.91,6.05l10.75,1.73c.26-.63.49-1.16.69-1.59.2-.43.45-.95.75-1.54.3-.59.58-1.08.85-1.46.27-.39.6-.83,1.01-1.34.4-.51.79-.88,1.16-1.13.37-.25.81-.55,1.32-.9s1.03-.56,1.56-.62c.53-.06,1.14-.14,1.82-.24s1.39-.05,2.11.15c3.03.54,5.36,1.96,7.01,4.27,1.65,2.31,2.51,4.9,2.6,7.76l4.53.73.05,3.35-4.84-.78c-.41,1.93-1.2,3.6-2.35,4.99-1.16,1.39-2.6,2.47-4.34,3.22l-2.82-5.22c1.94-1.03,3.18-2.34,3.7-3.93l-10.19-1.64ZM188.15,397.37c-1.18-.22-2.13-.02-2.86.61s-1.41,1.62-2.04,2.97l9.17,1.47c-.12-1.28-.56-2.39-1.32-3.35-.76-.96-1.74-1.53-2.95-1.71ZM171.07,406.87c1.17.25,2.13.05,2.86-.61.73-.67,1.41-1.71,2.04-3.13l-9.42-1.51c.26,1.45.8,2.64,1.61,3.55.81.92,1.78,1.48,2.92,1.71Z"/>
          <path class="cls-1" d="M209.07,467.08c-.04-2.5-2.1-4.49-4.59-4.45l-27.18.45v.04c-15.9,1.17-28.32,16.03-28.02,33.98s13.19,32.4,29.12,33.05v.04s27.18-.45,27.18-.45c2.5-.04,4.49-2.1,4.45-4.59l-.95-58.08Z"/>
          <path d="M183.46,497.7c-1.29,2.91-2.36,4.89-3.2,5.94-2.02,2.51-4.75,3.48-8.2,2.92-2.96-.54-5.28-1.92-6.95-4.14-1.67-2.23-2.61-4.93-2.84-8.12l-4.53-.73-.05-3.35,4.69.75c.26-2.66,1.07-4.88,2.43-6.68,1.35-1.79,3.14-3.05,5.36-3.78l2.82,5.32c-2.87.95-4.51,2.96-4.91,6.05l10.75,1.73c.26-.63.49-1.16.69-1.59.2-.43.45-.95.75-1.54.3-.59.58-1.08.85-1.46.27-.39.6-.83,1.01-1.34.4-.51.79-.88,1.16-1.13.37-.25.81-.55,1.32-.9s1.03-.56,1.56-.62c.53-.06,1.14-.14,1.82-.24s1.39-.05,2.11.15c3.03.54,5.36,1.96,7.01,4.27,1.65,2.31,2.51,4.9,2.6,7.76l4.53.73.05,3.35-4.84-.78c-.41,1.93-1.2,3.6-2.35,4.99s-2.6,2.47-4.34,3.22l-2.82-5.22c1.94-1.03,3.18-2.34,3.7-3.93l-10.19-1.64ZM189.68,490.98c-1.18-.22-2.13-.02-2.86.61s-1.41,1.62-2.04,2.97l9.17,1.47c-.12-1.28-.56-2.39-1.32-3.35-.76-.96-1.74-1.53-2.95-1.71ZM172.6,500.49c1.17.25,2.13.05,2.86-.61.73-.67,1.41-1.71,2.04-3.13l-9.42-1.51c.26,1.45.8,2.64,1.61,3.55.81.92,1.78,1.48,2.92,1.71Z"/>
        </g>
        <path class="cls-5" d="M220.83,418.69c-.03-4.66-.08-9.35-.15-14.07-.1-6.53-.23-13-.4-19.41"/>
        <path class="cls-5" d="M222.29,512.72c-.03-4.66-.08-9.35-.15-14.07-.1-6.53-.23-13-.4-19.41"/>
      </g>
      <g>
        <path class="cls-3" d="M471.53,872.72l-67.37-36.82-40.57,30.89c-6.51,4.96-15.2,5.97-22.68,2.64l-86.56-38.57c-8.3,15.88-24.93,26.51-43.28,26.81-27.39.45-50.03-21.47-50.48-48.86-.39-23.66,15.79-43.83,38.07-49.13l-1.06-64.71c-22.44-4.57-39.27-24.2-39.66-47.86-.45-27.39,21.47-50.03,48.86-50.48,17.81-.29,34.19,8.99,43.23,23.82l86.12-41.81c7.36-3.57,16.08-2.85,22.75,1.89l40.99,29.14,66.69-38.43,4.94,301.47Z"/>
        <g>
          <path class="cls-6" d="M435,801.28l-75.51,57.5c-4.54,3.46-10.6,4.16-15.81,1.84l-126.24-56.25c-5.54-2.47-9.15-7.93-9.25-14l-2.11-129.04c-.1-6.07,3.33-11.65,8.79-14.3l124.33-60.36c5.13-2.49,11.21-1.98,15.86,1.32l77.35,55c4.04,2.88,6.48,7.5,6.56,12.47l2.18,133.16c.08,4.96-2.2,9.67-6.15,12.67Z"/>
          <path class="cls-1" d="M268,797.19c.04,2.5,2.1,4.49,4.59,4.45l27.18-.45v-.04c15.9-1.17,28.32-16.03,28.02-33.98s-13.19-32.4-29.12-33.05v-.04s-27.18.45-27.18.45c-2.5.04-4.49,2.1-4.45,4.59l.95,58.08Z"/>
          <path class="cls-7" d="M364.03,716.77c.47.83,1.22,2.42,1.23,4.51.01,1.98-.65,3.52-1.09,4.36-2.7,3.64-6.58,8.12-12.03,12.62-6.23,5.15-12.42,8.61-17.24,10.88-.5.26-2.05.98-3.84.64-2.33-.44-4.15-2.5-4.21-5.07-.9-6.49-1.58-13.79-1.75-21.76-.2-8.85.25-16.91,1-24.01.06-2.47,1.71-4.55,4.05-5.21,1.84-.52,3.51.02,4.08.23,4.5,1.68,10.92,4.61,17.35,9.59,6.16,4.77,10.08,9.68,12.46,13.22Z"/>
          <line class="cls-4" x1="294.09" y1="738.62" x2="293.58" y2="707.22"/>
          <circle class="cls-6" cx="210.52" cy="807.64" r="40.93"/>
          <path class="cls-7" d="M208.79,781.71c1.03-.04,1.94,0,2.7.09,7.44,11.36,14.88,22.71,22.32,34.07-4.06,10.54-13.71,17.57-24.16,17.75-13.39.24-26.14-10.79-26.38-25.53-.27-16.54,15.4-25.96,25.53-26.38Z"/>
          <circle class="cls-6" cx="207.88" cy="645.95" r="40.93"/>
          <path class="cls-6" d="M458.36,585.89c1.48,90.53,2.97,181.06,4.45,271.6-22.88-12.5-45.75-25.01-68.63-37.51-1.13-65.05-2.26-130.1-3.4-195.14,22.53-12.98,45.05-25.96,67.58-38.94Z"/>
          <g>
            <polyline class="cls-2" points="392.61 736.72 378.21 720.93 392.1 705.32"/>
            <line class="cls-2" x1="361.54" y1="721.3" x2="378.21" y2="720.93"/>
          </g>
          <g>
            <path class="cls-6" d="M336.12,716.64c1.81.94,4.19-.77,5.33-3.83s.59-6.29-1.22-7.24-4.19.77-5.33,3.83c-1.14,3.05-.59,6.29,1.22,7.24Z"/>
            <path class="cls-6" d="M337.25,716.89c.59.05,5.66.39,8.81-3.54,3.57-4.44,1.54-10.42,1.09-11.73-.94-2.78-2.64-4.97-3.04-4.78-.77.37,4,9.08,1.01,12.71-.88,1.06-2.19,1.41-3.21,1.53"/>
          </g>
          <g>
            <path class="cls-6" d="M336.27,725.75c1.78-1,4.22.63,5.45,3.65,1.23,3.02.8,6.27-.98,7.27s-4.22-.63-5.45-3.65c-1.23-3.02-.8-6.27.98-7.27Z"/>
            <path class="cls-6" d="M337.39,725.46c.59-.07,5.64-.57,8.93,3.25,3.71,4.32,1.88,10.36,1.48,11.68-.85,2.81-2.48,5.06-2.89,4.88-.78-.34,3.7-9.21.59-12.73-.91-1.04-2.24-1.34-3.26-1.43"/>
          </g>
          <path class="cls-7" d="M206.99,671.93c1.03,0,1.94-.07,2.69-.18,7.06-11.59,14.13-23.19,21.19-34.78-4.4-10.4-14.28-17.11-24.73-16.95-13.39.2-25.77,11.65-25.53,26.38.27,16.54,16.24,25.44,26.38,25.53Z"/>
          <path d="M293.61,766.57c1.29-2.91,2.36-4.89,3.2-5.94,2.02-2.51,4.75-3.48,8.2-2.92,2.96.54,5.28,1.92,6.95,4.14,1.67,2.23,2.61,4.93,2.84,8.12l4.53.73.05,3.35-4.69-.75c-.26,2.66-1.07,4.88-2.43,6.68-1.35,1.79-3.14,3.05-5.36,3.78l-2.82-5.32c2.87-.95,4.51-2.96,4.91-6.05l-10.75-1.73c-.26.63-.49,1.16-.69,1.59-.2.43-.45.95-.75,1.54-.3.59-.58,1.08-.85,1.46-.27.39-.6.83-1.01,1.34-.4.51-.79.88-1.16,1.13-.37.25-.81.55-1.32.9s-1.03.56-1.56.62c-.53.06-1.14.14-1.82.24s-1.39.05-2.11-.15c-3.03-.54-5.36-1.96-7.01-4.27-1.65-2.31-2.51-4.9-2.6-7.76l-4.53-.73-.05-3.35,4.84.78c.41-1.93,1.2-3.6,2.35-4.99s2.6-2.47,4.34-3.22l2.82,5.22c-1.94,1.03-3.18,2.34-3.7,3.93l10.19,1.64ZM287.38,773.29c1.18.22,2.13.02,2.86-.61s1.41-1.62,2.04-2.97l-9.17-1.47c.12,1.28.56,2.39,1.32,3.35.76.96,1.74,1.53,2.95,1.71ZM304.46,763.78c-1.17-.25-2.13-.05-2.86.61-.73.67-1.41,1.71-2.04,3.13l9.42,1.51c-.26-1.45-.8-2.64-1.61-3.55-.81-.92-1.78-1.48-2.92-1.71Z"/>
          <path class="cls-1" d="M266.47,703.58c.04,2.5,2.1,4.49,4.59,4.45l27.18-.45v-.04c15.9-1.17,28.32-16.03,28.02-33.98-.29-17.95-13.19-32.4-29.12-33.05v-.04s-27.18.45-27.18.45c-2.5.04-4.49,2.1-4.45,4.59l.95,58.08Z"/>
          <path d="M292.07,672.96c1.29-2.91,2.36-4.89,3.2-5.94,2.02-2.51,4.75-3.48,8.2-2.92,2.96.54,5.28,1.92,6.95,4.14,1.67,2.23,2.61,4.93,2.84,8.12l4.53.73.05,3.35-4.69-.75c-.26,2.66-1.07,4.88-2.43,6.68-1.35,1.79-3.14,3.05-5.36,3.78l-2.82-5.32c2.87-.95,4.51-2.96,4.91-6.05l-10.75-1.73c-.26.63-.49,1.16-.69,1.59-.2.43-.45.95-.75,1.54-.3.59-.58,1.08-.85,1.46-.27.39-.6.83-1.01,1.34-.4.51-.79.88-1.16,1.13-.37.25-.81.55-1.32.9s-1.03.56-1.56.62c-.53.06-1.14.14-1.82.24s-1.39.05-2.11-.15c-3.03-.54-5.36-1.96-7.01-4.27-1.65-2.31-2.51-4.9-2.6-7.76l-4.53-.73-.05-3.35,4.84.78c.41-1.93,1.2-3.6,2.35-4.99,1.16-1.39,2.6-2.47,4.34-3.22l2.82,5.22c-1.94,1.03-3.18,2.34-3.7,3.93l10.19,1.64ZM285.85,679.68c1.18.22,2.13.02,2.86-.61s1.41-1.62,2.04-2.97l-9.17-1.47c.12,1.28.56,2.39,1.32,3.35.76.96,1.74,1.53,2.95,1.71ZM302.93,670.17c-1.17-.25-2.13-.05-2.86.61-.73.67-1.41,1.71-2.04,3.13l9.42,1.51c-.26-1.45-.8-2.64-1.61-3.55-.81-.92-1.78-1.48-2.92-1.71Z"/>
        </g>
        <path class="cls-5" d="M254.7,751.97c.03,4.66.08,9.35.15,14.07.1,6.53.23,13,.4,19.41"/>
        <path class="cls-5" d="M253.24,657.94c.03,4.66.08,9.35.15,14.07.1,6.53.23,13,.4,19.41"/>
      </g>
    </g>
  </g>
</svg>