<?xml version="1.0" encoding="UTF-8"?>
<svg id="Layer_2" data-name="Layer 2" xmlns="http://www.w3.org/2000/svg" viewBox="0 0 316.16 456.91">
  <defs>
    <style>
      .cls-1 {
        fill: none;
        stroke: #161616;
        stroke-miterlimit: 10;
      }

      .cls-2 {
        fill: #1130fe;
      }

      .cls-3 {
        fill: #ededed;
      }

      .cls-4 {
        fill: #161616;
      }
    </style>
  </defs>
  <g id="Layer_2-2" data-name="Layer 2">
    <g>
      <path class="cls-4" d="M288.51,177.59c-86.98-1.7-173.96-3.4-260.94-5.11-12.56-46.4-12.54-83.94-10.21-109.28,1.99-21.71,5.06-27.7,6.42-30.13C43.37-1.88,102.67-.73,161.36.4c59.48,1.15,113.47,2.19,133.28,36.77,5.22,9.1,6.1,17.43,7.66,33.7,4.04,42.18-4.01,78.92-13.79,106.72Z"/>
      <path class="cls-2" d="M274.14,223.25c0,18.88-5.48,37.13-15.54,51.18-15.88,22.19-43.8,50.98-84.37,56.47-42.38,5.74-84.51-15.85-113.43-56.41-9.99-14.01-15.42-32.24-15.42-51.05V94.59h228.77v128.65Z"/>
      <path class="cls-3" d="M143.91,184c0,4.24-1.55,8.34-4.38,11.5-4.48,4.99-12.36,11.45-23.81,12.69-11.96,1.29-23.85-3.56-32.01-12.67-2.82-3.15-4.35-7.24-4.35-11.47v-28.95h64.56v28.9Z"/>
      <path class="cls-3" d="M240.13,184c0,4.24-1.55,8.34-4.38,11.5-4.48,4.99-12.36,11.45-23.81,12.69-11.96,1.29-23.85-3.56-32.01-12.67-2.82-3.15-4.35-7.24-4.35-11.47v-28.95h64.56v28.9Z"/>
      <path class="cls-1" d="M134.37,243.47c-4.14-6.43-7.17-13.73-4.6-19.4,7.18-15.83,56.41-15.56,63.57,1.28,2.55,5.99-.58,13.26-3.83,18.64"/>
      <ellipse class="cls-4" cx="149.18" cy="241.68" rx="3.06" ry="2.04"/>
      <ellipse class="cls-4" cx="176.76" cy="241.93" rx="3.06" ry="2.04"/>
      <ellipse class="cls-4" cx="112.93" cy="183.04" rx="11.4" ry="9.36"/>
      <ellipse class="cls-4" cx="207.56" cy="183.04" rx="11.4" ry="9.36"/>
      <rect class="cls-4" x="75.65" y="137.93" width="71.15" height="19.74"/>
      <rect class="cls-4" x="172.67" y="137.93" width="71.15" height="19.74"/>
      <rect class="cls-4" x="134.2" y="272.06" width="59.23" height="4.09"/>
      <rect class="cls-2" x="131.68" y="317.51" width="56.17" height="64.34"/>
      <path class="cls-2" d="M48.07,176.06c-1.92-2.24-8.44-9.25-19.4-11.23-2.81-.51-13.31-2.41-20.43,3.06-11.95,9.18-11.18,36.7,4.09,50.04,13.03,11.39,31.11,7.61,33.7,7.03"/>
      <path class="cls-2" d="M268.09,172.49c1.92-2.24,8.44-9.25,19.4-11.23,2.81-.51,13.31-2.41,20.43,3.06,11.95,9.18,11.18,36.7-4.09,50.04-13.03,11.39-31.11,7.61-33.7,7.03"/>
      <path class="cls-4" d="M80.1,372.66h159.32c16.91,0,30.64,13.73,30.64,30.64v53.62H52.53c-1.69,0-3.06-1.37-3.06-3.06v-50.55c0-16.91,13.73-30.64,30.64-30.64Z"/>
    </g>
  </g>
</svg>