<?xml version="1.0" encoding="UTF-8"?>
<svg id="Layer_2" data-name="Layer 2" xmlns="http://www.w3.org/2000/svg" viewBox="0 0 536.57 239.28">
  <defs>
    <style>
      .cls-1 {
        fill: none;
        stroke: #294dff;
        stroke-linecap: square;
        stroke-linejoin: round;
        stroke-width: 25px;
      }

      .cls-2 {
        fill: #294dff;
      }
    </style>
  </defs>
  <g id="Layer_2-2" data-name="Layer 2">
    <g>
      <polyline class="cls-1" points="16.4 222.88 72.57 91.14 108.32 115.65 163.46 12.5 258.44 221.86 281.93 162.63 306.44 206.54 344.23 99.31 362.95 47.9 436.49 47.9"/>
      <path class="cls-2" d="M536.57,76.63c0,23.93-13.08,33.27-27.54,43.74-11.84,8.6-14.33,12.84-14.33,22.68v1.62h-39.5v-1.62c0-20.56,5.98-28.29,27.17-44.49,7.1-5.36,11.09-8.72,11.09-16.08s-4.61-10.59-12.46-10.59c-14.45,0-20.69,11.84-23.18,28.79h-34.52c-.25-23.05-.75-41.87-2.99-64.43h29.66c.62,8.35,1,15.95,1,23.55,5.48-18.44,23.06-25.8,41.75-25.8,26.92,0,43.86,15.7,43.86,42.62ZM500.68,175.95c0,13.71-11.34,24.55-24.43,24.55s-24.55-10.84-24.55-24.55,11.34-24.42,24.55-24.42,24.43,10.84,24.43,24.42Z"/>
    </g>
  </g>
</svg>