<?xml version="1.0" encoding="UTF-8"?>
<svg id="Layer_2" data-name="Layer 2" xmlns="http://www.w3.org/2000/svg" viewBox="0 0 165.17 169.64">
  <defs>
    <style>
      .cls-1 {
        fill: #231f20;
      }

      .cls-2 {
        fill: #1130fe;
      }

      .cls-3 {
        fill: #ededed;
      }
    </style>
  </defs>
  <g id="Layer_2-2" data-name="Layer 2">
    <g>
      <g>
        <path class="cls-3" d="M1.87,167.77l20.3-35.74-16.18-21.99c-2.6-3.53-3.06-8.19-1.21-12.16l21.41-46c-8.43-4.58-13.97-13.58-13.97-23.4C12.22,13.8,24.15,1.87,38.81,1.87c12.67,0,23.32,8.84,25.97,20.81h34.65c2.64-11.97,13.3-20.81,25.97-20.81,14.67,0,26.6,11.93,26.6,26.6,0,9.54-5.11,18.22-13.13,22.94l21.63,46.47c1.85,3.97,1.38,8.63-1.21,12.16l-15.96,21.69,19.99,36.04H1.87Z"/>
        <path class="cls-3" d="M163.3,169.64H1.87c-.67,0-1.28-.35-1.62-.93-.34-.58-.34-1.29,0-1.87l19.7-34.68-15.46-21.01c-3-4.08-3.54-9.47-1.4-14.07l20.69-44.46c-8.33-5.21-13.43-14.31-13.43-24.16C10.34,12.77,23.11,0,38.81,0c6.51,0,12.88,2.25,17.92,6.33,4.59,3.72,7.93,8.82,9.51,14.48h31.72c1.58-5.66,4.91-10.76,9.51-14.48,5.04-4.08,11.41-6.33,17.92-6.33,15.7,0,28.47,12.77,28.47,28.47,0,9.48-4.79,18.38-12.61,23.64l20.93,44.97c2.14,4.59,1.6,9.98-1.4,14.06l-15.25,20.72,19.41,34.99c.32.58.31,1.29-.02,1.86s-.95.92-1.61.92ZM5.09,165.89h155.03l-18.45-33.26c-.36-.64-.3-1.43.13-2.02l15.96-21.69c2.19-2.98,2.58-6.91,1.02-10.26l-21.63-46.47c-.41-.87-.08-1.92.75-2.4,7.53-4.43,12.21-12.59,12.21-21.32,0-13.63-11.09-24.72-24.72-24.72-11.51,0-21.66,8.13-24.14,19.34-.19.86-.95,1.47-1.83,1.47h-34.65c-.88,0-1.64-.61-1.83-1.47-2.47-11.21-12.63-19.34-24.14-19.34-13.63,0-24.72,11.09-24.72,24.72,0,9.06,4.98,17.4,13,21.76.87.47,1.22,1.54.8,2.44L6.48,98.66c-1.56,3.35-1.17,7.29,1.02,10.26l16.18,21.99c.44.6.49,1.39.12,2.03l-18.71,32.94Z"/>
      </g>
      <g>
        <path class="cls-2" d="M38.03,146.82l-25.4-34.51c-3.38-4.59-3.99-10.67-1.58-15.84l27.46-59c2.56-5.5,8.08-9.02,14.15-9.02h59.85c6.07,0,11.59,3.52,14.15,9.02l27.46,59c2.41,5.17,1.8,11.24-1.58,15.84l-25.4,34.51c-2.94,4-7.61,6.36-12.57,6.36h-63.97c-4.96,0-9.63-2.36-12.57-6.36Z"/>
        <path class="cls-1" d="M86.07,112.52c-.45.25-1.31.63-2.43.62-1.06-.01-1.88-.38-2.32-.62-1.92-1.48-4.29-3.6-6.65-6.55-2.7-3.38-4.5-6.73-5.67-9.32-.13-.27-.51-1.1-.31-2.06.26-1.25,1.38-2.2,2.75-2.21,3.48-.43,7.39-.72,11.67-.75,4.74-.03,9.05.28,12.84.75,1.32.05,2.42.96,2.75,2.21.26.99-.04,1.88-.16,2.18-.94,2.39-2.56,5.8-5.29,9.2-2.61,3.26-5.27,5.31-7.19,6.55Z"/>
        <circle class="cls-2" cx="38.76" cy="29.55" r="21.91"/>
        <path class="cls-1" d="M52.66,28.85c.01.55-.02,1.04-.07,1.44-6.14,3.88-12.29,7.77-18.43,11.65-5.61-2.27-9.28-7.49-9.29-13.09,0-7.17,6.01-13.9,13.9-13.9,8.85,0,13.76,8.47,13.9,13.9Z"/>
        <circle class="cls-2" cx="125.35" cy="29.55" r="21.91"/>
        <path class="cls-2" d="M155.3,164.16H9.87c6.89-12.14,13.79-24.27,20.68-36.41,34.83-.04,69.66-.07,104.5-.11,6.75,12.17,13.5,24.35,20.25,36.52Z"/>
        <g>
          <g>
            <path class="cls-1" d="M73.57,119.65c2.99.14,7.15.28,10.15.42,2.88-.03,7.4-.07,10.27-.1-.23,10.09-6.8,12.21-10.44,12.21-3.67,0-9.88-2.21-9.98-12.53Z"/>
            <path class="cls-1" d="M83.54,133.12c-1.83,0-10.78-.66-10.9-13.46,0-.26.1-.5.29-.68.19-.18.43-.27.69-.26,1.49.07,3.28.14,5.07.21,1.78.07,3.56.14,5.05.21,1.44-.02,3.27-.03,5.11-.05,1.85-.02,3.7-.03,5.13-.05.25,0,.5.1.68.28.18.18.28.43.27.68-.22,9.68-6.27,13.12-11.38,13.13,0,0,0,0-.01,0ZM74.54,120.63c.5,9.82,6.96,10.61,9,10.61,0,0,0,0,.01,0,1.5,0,8.79-.52,9.47-10.33-1.25.01-2.7.03-4.15.04-1.85.02-3.7.03-5.13.05-.02,0-.04,0-.06,0-1.49-.07-3.28-.14-5.07-.21-1.4-.06-2.81-.11-4.07-.17Z"/>
          </g>
          <path class="cls-1" d="M83.72,121.01c-.51,0-.93-.42-.94-.93l-.05-8.93c0-.52.41-.94.93-.94,0,0,0,0,0,0,.51,0,.93.42.94.93l.05,8.93c0,.52-.41.94-.93.94,0,0,0,0,0,0Z"/>
        </g>
        <g>
          <path class="cls-2" d="M86.38,97.58c-.52.96.38,2.25,2,2.89s3.36.37,3.88-.59-.38-2.25-2-2.89-3.36-.37-3.88.59Z"/>
          <path class="cls-2" d="M86.23,98.19c-.03.32-.26,3.03,1.82,4.75,2.35,1.95,5.56.91,6.27.69,1.49-.48,2.69-1.37,2.59-1.59-.19-.42-4.9,2.06-6.81.43-.56-.48-.74-1.19-.79-1.73"/>
        </g>
        <g>
          <path class="cls-2" d="M81.5,97.58c.52.96-.38,2.25-2,2.89s-3.36.37-3.88-.59.38-2.25,2-2.89,3.36-.37,3.88.59Z"/>
          <path class="cls-2" d="M81.65,98.19c.03.32.26,3.03-1.82,4.75-2.35,1.95-5.56.91-6.27.69-1.49-.48-2.69-1.37-2.59-1.59.19-.42,4.9,2.06,6.81.43.56-.48.74-1.19.79-1.73"/>
        </g>
        <path class="cls-1" d="M111.45,28.85c-.01.55.02,1.04.07,1.44,6.14,3.88,12.29,7.77,18.43,11.65,5.61-2.27,9.28-7.49,9.29-13.09,0-7.17-6.01-13.9-13.9-13.9-8.85,0-13.76,8.47-13.9,13.9Z"/>
        <path class="cls-1" d="M117.31,78.69c-.31,0-.62-.1-.88-.31-.91-.73-5.76-4.32-11.36-2.77-1.74.48-3.33,1.39-4.73,2.7-.57.53-1.45.5-1.99-.06-.53-.57-.5-1.45.06-1.99,1.74-1.63,3.72-2.76,5.9-3.36,6.92-1.91,12.76,2.41,13.87,3.29.6.49.7,1.37.22,1.97-.28.35-.68.53-1.1.53Z"/>
        <path class="cls-1" d="M50.44,78.69c-.41,0-.82-.18-1.1-.53-.49-.6-.39-1.49.22-1.97,1.1-.88,6.95-5.2,13.87-3.29,2.18.6,4.17,1.73,5.9,3.36.57.53.59,1.42.06,1.99-.53.57-1.42.59-1.99.06-1.4-1.31-2.99-2.22-4.73-2.7-5.59-1.55-10.44,2.04-11.36,2.77-.26.21-.57.31-.88.31Z"/>
        <path class="cls-1" d="M68.37,65.95s-.02,0-.03,0c-2.49-.02-4.99-.04-7.51-.04-3.45,0-6.93,0-10.36.04-.01,0-.02,0-.03,0-1.92,0-3.49-1.55-3.51-3.48-.02-1.94,1.54-3.53,3.48-3.54,3.45-.03,6.96-.05,10.43-.04,2.54,0,5.06.02,7.56.04,1.94.02,3.5,1.61,3.48,3.54-.02,1.93-1.59,3.48-3.51,3.48Z"/>
        <path class="cls-1" d="M117.32,65.99s-.02,0-.03,0c-2.49-.02-4.99-.04-7.51-.04-3.45,0-6.93,0-10.36.04-.01,0-.02,0-.03,0-1.92,0-3.49-1.55-3.51-3.48-.02-1.94,1.54-3.53,3.48-3.54,3.45-.03,6.96-.05,10.43-.04,2.54,0,5.06.02,7.56.04,1.94.02,3.5,1.61,3.48,3.54-.02,1.93-1.59,3.48-3.51,3.48Z"/>
      </g>
    </g>
  </g>
</svg>