<?xml version="1.0" encoding="UTF-8"?>
<svg id="Layer_2" data-name="Layer 2" xmlns="http://www.w3.org/2000/svg" viewBox="0 0 631.49 550.59">
  <defs>
    <style>
      .cls-1 {
        stroke: #161616;
        stroke-miterlimit: 10;
        stroke-width: 3px;
      }

      .cls-1, .cls-2 {
        fill: #ededed;
      }

      .cls-3 {
        fill: #161616;
      }
    </style>
  </defs>
  <g id="Layer_2-2" data-name="Layer 2">
    <g>
      <g>
        <path class="cls-1" d="M466.72,1.5H164.77c-4.39,0-8.45,2.34-10.65,6.15L3.15,269.14c-2.2,3.81-2.2,8.49,0,12.3l150.97,261.49c2.2,3.81,6.26,6.15,10.65,6.15h301.95c4.39,0,8.45-2.34,10.65-6.15l150.97-261.49c2.2-3.81,2.2-8.49,0-12.3L477.37,7.65c-2.2-3.81-6.26-6.15-10.65-6.15Z"/>
        <path class="cls-3" d="M457.08,18.2H174.41c-4.39,0-8.45,2.34-10.65,6.15L22.43,269.14c-2.2,3.81-2.2,8.49,0,12.3l141.33,244.8c2.2,3.81,6.26,6.15,10.65,6.15h282.67c4.39,0,8.45-2.34,10.65-6.15l141.33-244.8c2.2-3.81,2.2-8.49,0-12.3L467.73,24.35c-2.2-3.81-6.26-6.15-10.65-6.15Z"/>
      </g>
      <path class="cls-2" d="M433.25,193.18c0,48.36-26.45,67.25-55.66,88.41-23.93,17.38-28.97,25.94-28.97,45.84v3.27h-79.85v-3.27c0-41.56,12.09-57.18,54.91-89.92,14.36-10.83,22.42-17.63,22.42-32.49s-9.32-21.41-25.19-21.41c-29.22,0-41.81,23.93-46.85,58.19h-69.77c-.5-46.6-1.51-84.63-6.05-130.23h59.95c1.26,16.88,2.01,32.24,2.01,47.61,11.08-37.28,46.6-52.14,84.39-52.14,54.41,0,88.66,31.74,88.66,86.15ZM360.71,393.93c0,27.71-22.92,49.62-49.37,49.62s-49.62-21.91-49.62-49.62,22.92-49.37,49.62-49.37,49.37,21.91,49.37,49.37Z"/>
    </g>
  </g>
</svg>