<?xml version="1.0" encoding="UTF-8"?>
<svg id="Layer_2" data-name="Layer 2" xmlns="http://www.w3.org/2000/svg" viewBox="0 0 304.65 267.53">
  <defs>
    <style>
      .cls-1 {
        fill: #294dff;
      }

      .cls-2, .cls-3 {
        fill: #ededed;
      }

      .cls-3 {
        stroke: #294dff;
        stroke-miterlimit: 10;
        stroke-width: 3px;
      }
    </style>
  </defs>
  <g id="Layer_2-2" data-name="Layer 2">
    <g>
      <path class="cls-3" d="M221.59,1.5H83.06c-4.39,0-8.45,2.34-10.65,6.15L3.15,127.62c-2.2,3.81-2.2,8.49,0,12.3l69.26,119.97c2.2,3.81,6.26,6.15,10.65,6.15h138.53c4.39,0,8.45-2.34,10.65-6.15l69.26-119.97c2.2-3.81,2.2-8.49,0-12.3L232.24,7.65c-2.2-3.81-6.26-6.15-10.65-6.15Z"/>
      <path class="cls-1" d="M216.93,9.57H87.72c-4.39,0-8.45,2.34-10.65,6.15L12.46,127.62c-2.2,3.81-2.2,8.49,0,12.3l64.61,111.9c2.2,3.81,6.26,6.15,10.65,6.15h129.21c4.39,0,8.45-2.34,10.65-6.15l64.61-111.9c2.2-3.81,2.2-8.49,0-12.3L227.58,15.72c-2.2-3.81-6.26-6.15-10.65-6.15Z"/>
      <g>
        <g>
          <rect class="cls-2" x="96.45" y="189.5" width="106.06" height="20.28" rx="3.5" ry="3.5"/>
          <path class="cls-2" d="M199.02,193v13.28h-99.06v-13.28h99.06M199.02,186h-99.06c-3.87,0-7,3.13-7,7v13.28c0,3.87,3.13,7,7,7h99.06c3.87,0,7-3.13,7-7v-13.28c0-3.87-3.13-7-7-7h0Z"/>
        </g>
        <g>
          <rect class="cls-2" x="115.52" y="205.84" width="67.94" height="20.28" rx="3.5" ry="3.5"/>
          <path class="cls-2" d="M179.95,209.34v13.28h-60.94v-13.28h60.94M179.95,202.34h-60.94c-3.87,0-7,3.13-7,7v13.28c0,3.87,3.13,7,7,7h60.94c3.87,0,7-3.13,7-7v-13.28c0-3.87-3.13-7-7-7h0Z"/>
        </g>
        <g>
          <rect class="cls-2" x="123.52" y="222.52" width="51.94" height="37.98" rx="3.5" ry="3.5"/>
          <path class="cls-2" d="M171.95,226.02v30.98h-44.94v-30.98h44.94M171.95,219.02h-44.94c-3.87,0-7,3.13-7,7v30.98c0,3.87,3.13,7,7,7h44.94c3.87,0,7-3.13,7-7v-30.98c0-3.87-3.13-7-7-7h0Z"/>
        </g>
        <g>
          <path class="cls-2" d="M195.12,199.47l-92.3-6.72c-1.83-.13-3.25-1.66-3.25-3.49V61.94c0-1.05.47-2.04,1.28-2.71l44.94-36.77c.64-.53,1.43-.79,2.22-.79.74,0,1.47.23,2.1.7l47.32,35.4c.88.66,1.4,1.7,1.4,2.8l.04,135.4c0,.97-.4,1.9-1.12,2.56-.65.6-1.5.94-2.38.94-.08,0-.17,0-.25,0Z"/>
          <path class="cls-2" d="M148.01,25.17l47.32,35.4.04,135.4-92.3-6.72V61.94l44.94-36.77M148.01,18.17c-1.57,0-3.15.53-4.43,1.58l-44.94,36.77c-1.62,1.33-2.57,3.32-2.57,5.42v127.32c0,3.67,2.83,6.71,6.49,6.98l46.15,3.36,46.15,3.36c.17.01.34.02.51.02,1.76,0,3.47-.67,4.77-1.87,1.42-1.32,2.23-3.18,2.23-5.13l-.04-135.4c0-2.21-1.04-4.28-2.81-5.6l-47.32-35.4c-1.25-.93-2.72-1.4-4.19-1.4h0Z"/>
        </g>
        <g>
          <path class="cls-2" d="M165.03,191.82c-1.26,0-2.43-.68-3.05-1.78-.62-1.1-.6-2.45.06-3.53l30.13-49.53c.65-1.06,1.79-1.68,2.99-1.68.31,0,.63.04.94.13,1.51.42,2.56,1.8,2.56,3.37v49.53c0,1.93-1.57,3.5-3.5,3.5h-30.13Z"/>
          <path class="cls-2" d="M195.16,138.79v49.53h-30.13l30.13-49.53M195.16,131.79c-2.4,0-4.69,1.24-5.98,3.36l-30.13,49.53c-1.31,2.16-1.36,4.86-.12,7.07,1.24,2.2,3.57,3.57,6.1,3.57h30.13c3.87,0,7-3.13,7-7v-49.53c0-3.14-2.09-5.89-5.11-6.74-.63-.18-1.26-.26-1.89-.26h0Z"/>
        </g>
      </g>
      <rect class="cls-1" x="100.29" y="193" width="99.06" height="13.28"/>
      <rect class="cls-1" x="119.36" y="209.34" width="60.94" height="13.28"/>
      <rect class="cls-1" x="127.36" y="226.02" width="44.94" height="30.98"/>
      <polygon class="cls-1" points="103.41 189.26 103.41 61.94 148.35 25.17 195.67 60.58 103.41 189.26"/>
      <path class="cls-1" d="M151.06,122.49c-.65.9-1.8,2.31-2.45,3.21.02,20.39.04,40.79.06,61.18l2.35-.44c.01-21.32.02-42.64.03-63.96Z"/>
      <polygon class="cls-2" points="150.63 119.91 148.65 122.65 148.65 84.77 150.66 84.77 150.63 119.91"/>
      <polygon class="cls-1" points="195.5 138.79 165.37 188.32 195.5 188.32 195.5 138.79"/>
    </g>
  </g>
</svg>